<svg xmlns="http://www.w3.org/2000/svg" width="253.10377502441406" height="179.007080078125" viewBox="-114.03791809082031 -63.00600814819336 253.10377502441406 179.007080078125"><title>Neo4j Graph Visualization</title><desc>Created using Neo4j (http://www.neo4j.com/)</desc><g class="layer relationships"><g class="relationship" transform="translate(110.06584704527059 8.936900165950425) rotate(506.8805207628975)"><path class="outline" fill="#A5ABB6" stroke="none" d="M 25 0.5 L 45.15547488875001 0.5 L 45.15547488875001 -0.5 L 25 -0.5 Z M 90.71797488875 0.5 L 110.87344977750001 0.5 L 110.87344977750001 3.5 L 117.87344977750001 0 L 110.87344977750001 -3.5 L 110.87344977750001 -0.5 L 90.71797488875 -0.5 Z"/><text text-anchor="middle" pointer-events="none" font-size="8px" fill="#000000" x="67.93672488875" y="3" transform="rotate(180 67.93672488875 0)" font-family="sans-serif">ACTED_IN</text></g><g class="relationship" transform="translate(-85.03791545481569 -34.006008639107996) rotate(418.0582927101597)"><path class="outline" fill="#A5ABB6" stroke="none" d="M 25 0.5 L 45.01791875189234 0.5 L 45.01791875189234 -0.5 L 25 -0.5 Z M 90.58041875189234 0.5 L 110.59833750378468 0.5 L 110.59833750378468 3.5 L 117.59833750378468 0 L 110.59833750378468 -3.5 L 110.59833750378468 -0.5 L 90.58041875189234 -0.5 Z"/><text text-anchor="middle" pointer-events="none" font-size="8px" fill="#000000" x="67.79916875189234" y="3" font-family="sans-serif">ACTED_IN</text></g></g><g class="layer nodes"><g class="node" aria-label="graph-node348" transform="translate(-9.595382853132023,87.00105782185199)"><circle class="outline" cx="0" cy="0" r="25" fill="#C990C0" stroke="#b261a5" stroke-width="2px"/><text class="caption" text-anchor="middle" pointer-events="none" x="0" y="-5" font-size="10px" fill="#FFFFFF" font-family="sans-serif"> Captain</text><text class="caption" text-anchor="middle" pointer-events="none" x="0" y="5" font-size="10px" fill="#FFFFFF" font-family="sans-serif"> America:</text><text class="caption" text-anchor="middle" pointer-events="none" x="0" y="15" font-size="10px" fill="#FFFFFF" font-family="sans-serif"> Th</text></g><g class="node" aria-label="graph-node4" transform="translate(110.06584704527059,8.936900165950425)"><circle class="outline" cx="0" cy="0" r="25" fill="#F79767" stroke="#f36924" stroke-width="2px"/><text class="caption" text-anchor="middle" pointer-events="none" x="0" y="0" font-size="10px" fill="#FFFFFF" font-family="sans-serif"> Hugo</text><text class="caption" text-anchor="middle" pointer-events="none" x="0" y="10" font-size="10px" fill="#FFFFFF" font-family="sans-serif"> Weavi…</text></g><g class="node" aria-label="graph-node173" transform="translate(-85.03791545481569,-34.006008639107996)"><circle class="outline" cx="0" cy="0" r="25" fill="#F79767" stroke="#f36924" stroke-width="2px"/><text class="caption" text-anchor="middle" pointer-events="none" x="0" y="0" font-size="10px" fill="#FFFFFF" font-family="sans-serif"> Hugo</text><text class="caption" text-anchor="middle" pointer-events="none" x="0" y="10" font-size="10px" fill="#FFFFFF" font-family="sans-serif"> Weavi…</text></g></g></svg>