<svg xmlns="http://www.w3.org/2000/svg" width="402.3123779296875" height="653.6773681640625" viewBox="-195.85350036621094 -325.2497863769531 402.3123779296875 653.6773681640625"><title>Neo4j Graph Visualization</title><desc>Created using Neo4j (http://www.neo4j.com/)</desc><g class="layer relationships"><g class="relationship" transform="translate(29.915686690292723 176.01742924337356) rotate(508.04975203555875)"><path class="outline" fill="#A5ABB6" stroke="none" d="M 25 0.5 L 45.92858943120332 0.5 L 45.92858943120332 -0.5 L 25 -0.5 Z M 91.49108943120332 0.5 L 112.41967886240664 0.5 L 112.41967886240664 3.5 L 119.41967886240664 0 L 112.41967886240664 -3.5 L 112.41967886240664 -0.5 L 91.49108943120332 -0.5 Z"/><text text-anchor="middle" pointer-events="none" font-size="8px" fill="#000000" x="68.70983943120332" y="3" transform="rotate(180 68.70983943120332 0)" font-family="sans-serif">ACTED_IN</text></g><g class="relationship" transform="translate(29.915686690292723 176.01742924337356) rotate(418.8494293638296)"><path class="outline" fill="#A5ABB6" stroke="none" d="M 25 0.5 L 45.820061122664626 0.5 L 45.820061122664626 -0.5 L 25 -0.5 Z M 91.38256112266463 0.5 L 112.20262224532925 0.5 L 112.20262224532925 3.5 L 119.20262224532925 0 L 112.20262224532925 -3.5 L 112.20262224532925 -0.5 L 91.38256112266463 -0.5 Z"/><text text-anchor="middle" pointer-events="none" font-size="8px" fill="#000000" x="68.60131112266463" y="3" font-family="sans-serif">ACTED_IN</text></g><g class="relationship" transform="translate(29.915686690292723 176.01742924337356) rotate(363.64586177729234)"><path class="outline" fill="#A5ABB6" stroke="none" d="M 25 0.5 L 47.63994859810093 0.5 L 47.63994859810093 -0.5 L 25 -0.5 Z M 93.20244859810093 0.5 L 115.84239719620186 0.5 L 115.84239719620186 3.5 L 122.84239719620186 0 L 115.84239719620186 -3.5 L 115.84239719620186 -0.5 L 93.20244859810093 -0.5 Z"/><text text-anchor="middle" pointer-events="none" font-size="8px" fill="#000000" x="70.42119859810093" y="3" font-family="sans-serif">ACTED_IN</text></g><g class="relationship" transform="translate(29.915686690292723 176.01742924337356) rotate(324.3750167668758)"><path class="outline" fill="#A5ABB6" stroke="none" d="M 25 0.5 L 48.222019192702064 0.5 L 48.222019192702064 -0.5 L 25 -0.5 Z M 93.78451919270206 0.5 L 117.00653838540413 0.5 L 117.00653838540413 3.5 L 124.00653838540413 0 L 117.00653838540413 -3.5 L 117.00653838540413 -0.5 L 93.78451919270206 -0.5 Z"/><text text-anchor="middle" pointer-events="none" font-size="8px" fill="#000000" x="71.00326919270206" y="3" font-family="sans-serif">ACTED_IN</text></g><g class="relationship" transform="translate(29.915686690292723 176.01742924337356) rotate(284.02776163171933)"><path class="outline" fill="#A5ABB6" stroke="none" d="M 25 0.5 L 45.78536242789383 0.5 L 45.78536242789383 -0.5 L 25 -0.5 Z M 91.34786242789383 0.5 L 112.13322485578766 0.5 L 112.13322485578766 3.5 L 119.13322485578766 0 L 112.13322485578766 -3.5 L 112.13322485578766 -0.5 L 91.34786242789383 -0.5 Z"/><text text-anchor="middle" pointer-events="none" font-size="8px" fill="#000000" x="68.56661242789383" y="3" font-family="sans-serif">ACTED_IN</text></g><g class="relationship" transform="translate(-18.9772399968459 -191.0408206047244) rotate(312.8462760807336)"><path class="outline" fill="#A5ABB6" stroke="none" d="M 25 0.5 L 45.467045072040364 0.5 L 45.467045072040364 -0.5 L 25 -0.5 Z M 91.02954507204036 0.5 L 111.49659014408073 0.5 L 111.49659014408073 3.5 L 118.49659014408073 0 L 111.49659014408073 -3.5 L 111.49659014408073 -0.5 L 91.02954507204036 -0.5 Z"/><text text-anchor="middle" pointer-events="none" font-size="8px" fill="#000000" x="68.24829507204036" y="3" font-family="sans-serif">ACTED_IN</text></g><g class="relationship" transform="translate(-18.9772399968459 -191.0408206047244) rotate(219.55120295097726)"><path class="outline" fill="#A5ABB6" stroke="none" d="M 25 0.5 L 46.281942848978176 0.5 L 46.281942848978176 -0.5 L 25 -0.5 Z M 91.84444284897818 0.5 L 113.12638569795635 0.5 L 113.12638569795635 3.5 L 120.12638569795635 0 L 113.12638569795635 -3.5 L 113.12638569795635 -0.5 L 91.84444284897818 -0.5 Z"/><text text-anchor="middle" pointer-events="none" font-size="8px" fill="#000000" x="69.06319284897818" y="3" transform="rotate(180 69.06319284897818 0)" font-family="sans-serif">ACTED_IN</text></g><g class="relationship" transform="translate(-18.9772399968459 -191.0408206047244) rotate(535.3435670321596)"><path class="outline" fill="#A5ABB6" stroke="none" d="M 25 0.5 L 47.90171851009124 0.5 L 47.90171851009124 -0.5 L 25 -0.5 Z M 93.46421851009124 0.5 L 116.36593702018249 0.5 L 116.36593702018249 3.5 L 123.36593702018249 0 L 116.36593702018249 -3.5 L 116.36593702018249 -0.5 L 93.46421851009124 -0.5 Z"/><text text-anchor="middle" pointer-events="none" font-size="8px" fill="#000000" x="70.68296851009124" y="3" transform="rotate(180 70.68296851009124 0)" font-family="sans-serif">ACTED_IN</text></g><g class="relationship" transform="translate(-18.9772399968459 -191.0408206047244) rotate(496.2185911009356)"><path class="outline" fill="#A5ABB6" stroke="none" d="M 25 0.5 L 48.47166101630742 0.5 L 48.47166101630742 -0.5 L 25 -0.5 Z M 94.03416101630742 0.5 L 117.50582203261484 0.5 L 117.50582203261484 3.5 L 124.50582203261484 0 L 117.50582203261484 -3.5 L 117.50582203261484 -0.5 L 94.03416101630742 -0.5 Z"/><text text-anchor="middle" pointer-events="none" font-size="8px" fill="#000000" x="71.25291101630742" y="3" transform="rotate(180 71.25291101630742 0)" font-family="sans-serif">ACTED_IN</text></g><g class="relationship" transform="translate(-18.9772399968459 -191.0408206047244) rotate(455.8728434897227)"><path class="outline" fill="#A5ABB6" stroke="none" d="M 25 0.5 L 45.177289368569475 0.5 L 45.177289368569475 -0.5 L 25 -0.5 Z M 90.73978936856948 0.5 L 110.91707873713895 0.5 L 110.91707873713895 3.5 L 117.91707873713895 0 L 110.91707873713895 -3.5 L 110.91707873713895 -0.5 L 90.73978936856948 -0.5 Z"/><text text-anchor="middle" pointer-events="none" font-size="8px" fill="#000000" x="67.95853936856948" y="3" transform="rotate(180 67.95853936856948 0)" font-family="sans-serif">ACTED_IN</text></g></g><g class="layer nodes"><g class="node" aria-label="graph-node4" transform="translate(29.915686690292723,176.01742924337356)"><circle class="outline" cx="0" cy="0" r="25" fill="#F79767" stroke="#f36924" stroke-width="2px"/><text class="caption" text-anchor="middle" pointer-events="none" x="0" y="0" font-size="10px" fill="#FFFFFF" font-family="sans-serif"> Hugo</text><text class="caption" text-anchor="middle" pointer-events="none" x="0" y="10" font-size="10px" fill="#FFFFFF" font-family="sans-serif"> Weavi…</text></g><g class="node" aria-label="graph-node105" transform="translate(-92.62555532078397,252.44182095899927)"><circle class="outline" cx="0" cy="0" r="25" fill="#C990C0" stroke="#b261a5" stroke-width="2px"/><text class="caption" text-anchor="middle" pointer-events="none" x="0" y="0" font-size="10px" fill="#FFFFFF" font-family="sans-serif"> Cloud</text><text class="caption" text-anchor="middle" pointer-events="none" x="0" y="10" font-size="10px" fill="#FFFFFF" font-family="sans-serif"> Atlas</text></g><g class="node" aria-label="graph-node114" transform="translate(104.51010102066735,299.42759743521066)"><circle class="outline" cx="0" cy="0" r="25" fill="#C990C0" stroke="#b261a5" stroke-width="2px"/><text class="caption" text-anchor="middle" pointer-events="none" x="0" y="0" font-size="10px" fill="#FFFFFF" font-family="sans-serif"> V for</text><text class="caption" text-anchor="middle" pointer-events="none" x="0" y="10" font-size="10px" fill="#FFFFFF" font-family="sans-serif"> Vende…</text></g><g class="node" aria-label="graph-node10" transform="translate(177.45887286359962,185.41863249340545)"><circle class="outline" cx="0" cy="0" r="25" fill="#C990C0" stroke="#b261a5" stroke-width="2px"/><text class="caption" text-anchor="middle" pointer-events="none" x="0" y="-5" font-size="10px" fill="#FFFFFF" font-family="sans-serif"> The</text><text class="caption" text-anchor="middle" pointer-events="none" x="0" y="5" font-size="10px" fill="#FFFFFF" font-family="sans-serif"> Matrix</text><text class="caption" text-anchor="middle" pointer-events="none" x="0" y="15" font-size="10px" fill="#FFFFFF" font-family="sans-serif"> Rev…</text></g><g class="node" aria-label="graph-node9" transform="translate(151.03518279819158,89.22447939046451)"><circle class="outline" cx="0" cy="0" r="25" fill="#C990C0" stroke="#b261a5" stroke-width="2px"/><text class="caption" text-anchor="middle" pointer-events="none" x="0" y="-5" font-size="10px" fill="#FFFFFF" font-family="sans-serif"> The</text><text class="caption" text-anchor="middle" pointer-events="none" x="0" y="5" font-size="10px" fill="#FFFFFF" font-family="sans-serif"> Matrix</text><text class="caption" text-anchor="middle" pointer-events="none" x="0" y="15" font-size="10px" fill="#FFFFFF" font-family="sans-serif"> Rel…</text></g><g class="node" aria-label="graph-node0" transform="translate(64.8524282512389,36.18248870120184)"><circle class="outline" cx="0" cy="0" r="25" fill="#C990C0" stroke="#b261a5" stroke-width="2px"/><text class="caption" text-anchor="middle" pointer-events="none" x="0" y="0" font-size="10px" fill="#FFFFFF" font-family="sans-serif"> The</text><text class="caption" text-anchor="middle" pointer-events="none" x="0" y="10" font-size="10px" fill="#FFFFFF" font-family="sans-serif"> Matrix</text></g><g class="node" aria-label="graph-node173" transform="translate(-18.9772399968459,-191.0408206047244)"><circle class="outline" cx="0" cy="0" r="25" fill="#F79767" stroke="#f36924" stroke-width="2px"/><text class="caption" text-anchor="middle" pointer-events="none" x="0" y="0" font-size="10px" fill="#FFFFFF" font-family="sans-serif"> Hugo</text><text class="caption" text-anchor="middle" pointer-events="none" x="0" y="10" font-size="10px" fill="#FFFFFF" font-family="sans-serif"> Weavi…</text></g><g class="node" aria-label="graph-node283" transform="translate(78.60527629923557,-296.2497741034798)"><circle class="outline" cx="0" cy="0" r="25" fill="#C990C0" stroke="#b261a5" stroke-width="2px"/><text class="caption" text-anchor="middle" pointer-events="none" x="0" y="0" font-size="10px" fill="#FFFFFF" font-family="sans-serif"> V for</text><text class="caption" text-anchor="middle" pointer-events="none" x="0" y="10" font-size="10px" fill="#FFFFFF" font-family="sans-serif"> Vende…</text></g><g class="node" aria-label="graph-node274" transform="translate(-130.87778688321393,-283.4525916746684)"><circle class="outline" cx="0" cy="0" r="25" fill="#C990C0" stroke="#b261a5" stroke-width="2px"/><text class="caption" text-anchor="middle" pointer-events="none" x="0" y="0" font-size="10px" fill="#FFFFFF" font-family="sans-serif"> Cloud</text><text class="caption" text-anchor="middle" pointer-events="none" x="0" y="10" font-size="10px" fill="#FFFFFF" font-family="sans-serif"> Atlas</text></g><g class="node" aria-label="graph-node169" transform="translate(-166.85348096324617,-178.9963768432268)"><circle class="outline" cx="0" cy="0" r="25" fill="#C990C0" stroke="#b261a5" stroke-width="2px"/><text class="caption" text-anchor="middle" pointer-events="none" x="0" y="0" font-size="10px" fill="#FFFFFF" font-family="sans-serif"> The</text><text class="caption" text-anchor="middle" pointer-events="none" x="0" y="10" font-size="10px" fill="#FFFFFF" font-family="sans-serif"> Matrix</text></g><g class="node" aria-label="graph-node179" transform="translate(-126.91816711296168,-87.59640521674281)"><circle class="outline" cx="0" cy="0" r="25" fill="#C990C0" stroke="#b261a5" stroke-width="2px"/><text class="caption" text-anchor="middle" pointer-events="none" x="0" y="-5" font-size="10px" fill="#FFFFFF" font-family="sans-serif"> The</text><text class="caption" text-anchor="middle" pointer-events="none" x="0" y="5" font-size="10px" fill="#FFFFFF" font-family="sans-serif"> Matrix</text><text class="caption" text-anchor="middle" pointer-events="none" x="0" y="15" font-size="10px" fill="#FFFFFF" font-family="sans-serif"> Rev…</text></g><g class="node" aria-label="graph-node178" transform="translate(-33.60066776418152,-48.87385272859963)"><circle class="outline" cx="0" cy="0" r="25" fill="#C990C0" stroke="#b261a5" stroke-width="2px"/><text class="caption" text-anchor="middle" pointer-events="none" x="0" y="-5" font-size="10px" fill="#FFFFFF" font-family="sans-serif"> The</text><text class="caption" text-anchor="middle" pointer-events="none" x="0" y="5" font-size="10px" fill="#FFFFFF" font-family="sans-serif"> Matrix</text><text class="caption" text-anchor="middle" pointer-events="none" x="0" y="15" font-size="10px" fill="#FFFFFF" font-family="sans-serif"> Rel…</text></g></g></svg>