<svg xmlns="http://www.w3.org/2000/svg" width="481.8582763671875" height="507.4719543457031" viewBox="-247.78675842285156 -254.84214782714844 481.8582763671875 507.4719543457031"><title>Neo4j Graph Visualization</title><desc>Created using Neo4j (http://www.neo4j.com/)</desc><g class="layer relationships"><g class="relationship" transform="translate(205.07150878926478 -74.37508496754724) rotate(231.36715038012363)"><path class="outline" fill="#A5ABB6" stroke="none" d="M 21.40063509461097,12.933012701892217 L 21.90063509461097,12.06698729810778 A 97.12060358094787 97.12060358094787 0 0 0 57.28286866522317,24.18047682654722 L 57.14718099716952,25.171228489043003 A 98.12060358094787 98.12060358094787 0 0 1 21.40063509461097,12.933012701892217 Z M 79.21877483158417,25.687055267222263 L 79.1295189808568,24.691046535779137 A 97.12060358094787 97.12060358094787 0 0 0 115.03901348634396,14.24368871854346 L 113.66202214904948,11.57837544295728 L 121.4875763522608,11.474927810787353 L 116.87500193606994,17.79743975265837 L 115.49801059877545,15.132126477072187 A 98.12060358094787 98.12060358094787 0 0 1 79.21877483158417,25.687055267222263"/><text text-anchor="middle" pointer-events="none" font-size="8px" fill="#000000" x="68.1801058876705" y="28.55203237088226" transform="rotate(180 68.1801058876705 25.55203237088226)" font-family="sans-serif">road</text></g><g class="relationship" transform="translate(115.35656130190208 -186.6270022705397) rotate(195.3940510621261)"><path class="outline" fill="#A5ABB6" stroke="none" d="M 25 0.5 L 60.69577825355758 0.5 L 60.69577825355758 -0.5 L 25 -0.5 Z M 80.03171575355758 0.5 L 115.72749400711515 0.5 L 115.72749400711515 3.5 L 122.72749400711515 0 L 115.72749400711515 -3.5 L 115.72749400711515 -0.5 L 80.03171575355758 -0.5 Z"/><text text-anchor="middle" pointer-events="none" font-size="8px" fill="#000000" x="70.36374700355758" y="3" transform="rotate(180 70.36374700355758 0)" font-family="sans-serif">trek</text></g><g class="relationship" transform="translate(-27.070909169558952 -225.84215419837682) rotate(455.802410961532)"><path class="outline" fill="#A5ABB6" stroke="none" d="M 25 0.5 L 57.99910789904527 0.5 L 57.99910789904527 -0.5 L 25 -0.5 Z M 77.33504539904527 0.5 L 110.33415329809054 0.5 L 110.33415329809054 3.5 L 117.33415329809054 0 L 110.33415329809054 -3.5 L 110.33415329809054 -0.5 L 77.33504539904527 -0.5 Z"/><text text-anchor="middle" pointer-events="none" font-size="8px" fill="#000000" x="67.66707664904527" y="3" transform="rotate(180 67.66707664904527 0)" font-family="sans-serif">trek</text></g><g class="relationship" transform="translate(205.07150878926478 -74.37508496754724) rotate(231.36715038012363)"><path class="outline" fill="#A5ABB6" stroke="none" d="M 25 0.5 L 37.48597890773945 0.5 L 37.48597890773945 -0.5 L 25 -0.5 Z M 99.21254140773945 0.5 L 111.6985203154789 0.5 L 111.6985203154789 3.5 L 118.6985203154789 0 L 111.6985203154789 -3.5 L 111.6985203154789 -0.5 L 99.21254140773945 -0.5 Z"/><text text-anchor="middle" pointer-events="none" font-size="8px" fill="#000000" x="68.34926015773945" y="3" transform="rotate(180 68.34926015773945 0)" font-family="sans-serif">PublicTransport</text></g><g class="relationship" transform="translate(205.07150878926478 -74.37508496754724) rotate(231.36715038012363)"><path class="outline" fill="#A5ABB6" stroke="none" d="M 21.40063509461097,-12.933012701892217 L 21.90063509461097,-12.06698729810778 A 97.12060358094787 97.12060358094787 0 0 1 58.60279319713861,-24.352040186440746 L 58.480696100840575,-25.344558347017966 A 98.12060358094787 98.12060358094787 0 0 0 21.40063509461097,-12.933012701892217 Z M 77.87861839760532,-25.797899770241784 L 77.80302080401326,-24.80076136267587 A 97.12060358094787 97.12060358094787 0 0 1 115.03901348634396,-14.24368871854346 L 113.66202214904948,-11.57837544295728 L 121.4875763522608,-11.474927810787353 L 116.87500193606994,-17.79743975265837 L 115.49801059877545,-15.132126477072187 A 98.12060358094787 98.12060358094787 0 0 0 77.87861839760532,-25.797899770241784"/><text text-anchor="middle" pointer-events="none" font-size="8px" fill="#000000" x="68.18010588767049" y="-22.55203237088226" transform="rotate(180 68.18010588767049 -25.55203237088226)" font-family="sans-serif">trek</text></g><g class="relationship" transform="translate(-218.78675737827194 8.571992507294622) rotate(425.0378572244854)"><path class="outline" fill="#A5ABB6" stroke="none" d="M 21.40063509461097,12.933012701892217 L 21.90063509461097,12.06698729810778 A 96.56095956132289 96.56095956132289 0 0 0 37.849079421950655,19.4298764321793 L 37.51424393978264,20.372153036941043 A 97.56095956132289 97.56095956132289 0 0 1 21.40063509461097,12.933012701892217 Z M 98.50172601290535,21.802712323673816 L 98.21143970099355,20.845772483811004 A 96.56095956132289 96.56095956132289 0 0 0 114.48757043646381,14.23876248345827 L 113.11103723621987,11.573212568595267 L 120.93660910451814,11.471110002032892 L 116.32294803678907,17.79282903660894 L 114.94641483654513,15.127279121745936 A 97.56095956132289 97.56095956132289 0 0 1 98.50172601290535,21.802712323673816"/><text text-anchor="middle" pointer-events="none" font-size="8px" fill="#000000" x="67.90502035184953" y="28.47701181118289" font-family="sans-serif">PublicTransport</text></g><g class="relationship" transform="translate(-158.37488902167362 138.3494662346643) rotate(395.84568246075037)"><path class="outline" fill="#A5ABB6" stroke="none" d="M 25 0.5 L 59.646017694656976 0.5 L 59.646017694656976 -0.5 L 25 -0.5 Z M 78.98195519465698 0.5 L 113.62797288931395 0.5 L 113.62797288931395 3.5 L 120.62797288931395 0 L 113.62797288931395 -3.5 L 113.62797288931395 -0.5 L 78.98195519465698 -0.5 Z"/><text text-anchor="middle" pointer-events="none" font-size="8px" fill="#000000" x="69.31398644465698" y="3" font-family="sans-serif">trek</text></g><g class="relationship" transform="translate(-40.329266467866276 223.6298126442258) rotate(340.5024536144665)"><path class="outline" fill="#A5ABB6" stroke="none" d="M 25 0.5 L 58.527293558712174 0.5 L 58.527293558712174 -0.5 L 25 -0.5 Z M 77.86323105871217 0.5 L 111.39052461742435 0.5 L 111.39052461742435 3.5 L 118.39052461742435 0 L 111.39052461742435 -3.5 L 111.39052461742435 -0.5 L 77.86323105871217 -0.5 Z"/><text text-anchor="middle" pointer-events="none" font-size="8px" fill="#000000" x="68.19526230871217" y="3" font-family="sans-serif">trek</text></g><g class="relationship" transform="translate(-218.78675737827194 8.571992507294622) rotate(425.0378572244854)"><path class="outline" fill="#A5ABB6" stroke="none" d="M 25 0.5 L 58.40679378085491 0.5 L 58.40679378085491 -0.5 L 25 -0.5 Z M 77.74273128085491 0.5 L 111.14952506170982 0.5 L 111.14952506170982 3.5 L 118.14952506170982 0 L 111.14952506170982 -3.5 L 111.14952506170982 -0.5 L 77.74273128085491 -0.5 Z"/><text text-anchor="middle" pointer-events="none" font-size="8px" fill="#000000" x="68.07476253085491" y="3" font-family="sans-serif">trek</text></g><g class="relationship" transform="translate(-218.78675737827194 8.571992507294622) rotate(425.0378572244854)"><path class="outline" fill="#A5ABB6" stroke="none" d="M 21.40063509461097,-12.933012701892217 L 21.90063509461097,-12.06698729810778 A 96.56095956132289 96.56095956132289 0 0 1 57.00857588494567,-24.10100550852715 L 56.872159065454966,-25.09165703724956 A 97.56095956132289 97.56095956132289 0 0 0 21.40063509461097,-12.933012701892217 Z M 78.94381577023515,-25.609383173815488 L 78.8539980712871,-24.613424951320354 A 96.56095956132289 96.56095956132289 0 0 1 114.48757043646381,-14.23876248345827 L 113.11103723621987,-11.573212568595267 L 120.93660910451814,-11.471110002032892 L 116.32294803678907,-17.79282903660894 L 114.94641483654513,-15.127279121745936 A 97.56095956132289 97.56095956132289 0 0 0 78.94381577023515,-25.609383173815488"/><text text-anchor="middle" pointer-events="none" font-size="8px" fill="#000000" x="67.90502035184952" y="-22.47701181118289" font-family="sans-serif">road</text></g></g><g class="layer nodes"><g class="node" aria-label="graph-node359" transform="translate(205.07150878926478,-74.37508496754724)"><circle class="outline" cx="0" cy="0" r="25" fill="#57C7E3" stroke="#23b3d7" stroke-width="2px"/><text class="caption" text-anchor="middle" pointer-events="none" x="0" y="5" font-size="10px" fill="#2A2C34" font-family="sans-serif"> Darjeeling</text></g><g class="node" aria-label="graph-node361" transform="translate(-41.4606303004824,-84.23725625745602)"><circle class="outline" cx="0" cy="0" r="25" fill="#F16667" stroke="#eb2728" stroke-width="2px"/><text class="caption" text-anchor="middle" pointer-events="none" x="0" y="5" font-size="10px" fill="#FFFFFF" font-family="sans-serif"> Sandakp…</text></g><g class="node" aria-label="graph-node369" transform="translate(-218.78675737827194,8.571992507294622)"><circle class="outline" cx="0" cy="0" r="25" fill="#57C7E3" stroke="#23b3d7" stroke-width="2px"/><text class="caption" text-anchor="middle" pointer-events="none" x="0" y="5" font-size="10px" fill="#2A2C34" font-family="sans-serif"> Darjeeling</text></g><g class="node" aria-label="graph-node371" transform="translate(94.838641085004,175.77086031721709)"><circle class="outline" cx="0" cy="0" r="25" fill="#F16667" stroke="#eb2728" stroke-width="2px"/><text class="caption" text-anchor="middle" pointer-events="none" x="0" y="5" font-size="10px" fill="#FFFFFF" font-family="sans-serif"> Sandakp…</text></g><g class="node" aria-label="graph-node358" transform="translate(115.35656130190208,-186.6270022705397)"><circle class="outline" cx="0" cy="0" r="25" fill="#57C7E3" stroke="#23b3d7" stroke-width="2px"/><text class="caption" text-anchor="middle" pointer-events="none" x="0" y="5" font-size="10px" fill="#2A2C34" font-family="sans-serif"> Rimbik</text></g><g class="node" aria-label="graph-node360" transform="translate(-27.070909169558952,-225.84215419837682)"><circle class="outline" cx="0" cy="0" r="25" fill="#D9C8AE" stroke="#c0a378" stroke-width="2px"/><text class="caption" text-anchor="middle" pointer-events="none" x="0" y="5" font-size="10px" fill="#2A2C34" font-family="sans-serif"> BhikeBh…</text></g><g class="node" aria-label="graph-node368" transform="translate(-158.37488902167362,138.3494662346643)"><circle class="outline" cx="0" cy="0" r="25" fill="#57C7E3" stroke="#23b3d7" stroke-width="2px"/><text class="caption" text-anchor="middle" pointer-events="none" x="0" y="5" font-size="10px" fill="#2A2C34" font-family="sans-serif"> Rimbik</text></g><g class="node" aria-label="graph-node370" transform="translate(-40.329266467866276,223.6298126442258)"><circle class="outline" cx="0" cy="0" r="25" fill="#D9C8AE" stroke="#c0a378" stroke-width="2px"/><text class="caption" text-anchor="middle" pointer-events="none" x="0" y="5" font-size="10px" fill="#2A2C34" font-family="sans-serif"> BhikeBh…</text></g></g></svg>