<svg xmlns="http://www.w3.org/2000/svg" width="481.8688659667969" height="507.47412109375" viewBox="-247.79104614257812 -254.84921264648438 481.8688659667969 507.47412109375"><title>Neo4j Graph Visualization</title><desc>Created using Neo4j (http://www.neo4j.com/)</desc><g class="layer relationships"><g class="relationship" transform="translate(205.07780894223922 -74.35621694176382) rotate(231.36729834436187)"><path class="outline" fill="#A5ABB6" stroke="none" d="M 21.40063509461097,12.933012701892217 L 21.90063509461097,12.06698729810778 A 97.11984418150018 97.11984418150018 0 0 0 57.28249643664659,24.180369020728534 L 57.14680778455107,25.17112054845508 A 98.11984418150018 98.11984418150018 0 0 1 21.40063509461097,12.933012701892217 Z M 79.21840170588193,25.68694989472513 L 79.12914509735816,24.690941231191104 A 97.11984418150018 97.11984418150018 0 0 0 115.03826517231892,14.243682058230851 L 113.66127445442866,11.578368462639503 L 121.48682868168045,11.47492264908548 L 116.8742527961726,17.797433519019314 L 115.49726207828235,15.132119923427966 A 98.11984418150018 98.11984418150018 0 0 1 79.21840170588193,25.68694989472513"/><text text-anchor="middle" pointer-events="none" font-size="8px" fill="#000000" x="68.17973259067413" y="28.551930572924647" transform="rotate(180 68.17973259067413 25.551930572924647)" font-family="sans-serif">road</text></g><g class="relationship" transform="translate(115.36361646656428 -186.60778395952548) rotate(195.40473390326122)"><path class="outline" fill="#A5ABB6" stroke="none" d="M 25 0.5 L 60.69525591961846 0.5 L 60.69525591961846 -0.5 L 25 -0.5 Z M 80.03119341961846 0.5 L 115.72644933923692 0.5 L 115.72644933923692 3.5 L 122.72644933923692 0 L 115.72644933923692 -3.5 L 115.72644933923692 -0.5 L 80.03119341961846 -0.5 Z"/><text text-anchor="middle" pointer-events="none" font-size="8px" fill="#000000" x="70.36322466961846" y="3" transform="rotate(180 70.36322466961846 0)" font-family="sans-serif">trek</text></g><g class="relationship" transform="translate(-27.05553269815882 -225.84921341328626) rotate(455.82318193795436)"><path class="outline" fill="#A5ABB6" stroke="none" d="M 25 0.5 L 57.99877120349319 0.5 L 57.99877120349319 -0.5 L 25 -0.5 Z M 77.33470870349319 0.5 L 110.33347990698638 0.5 L 110.33347990698638 3.5 L 117.33347990698638 0 L 110.33347990698638 -3.5 L 110.33347990698638 -0.5 L 77.33470870349319 -0.5 Z"/><text text-anchor="middle" pointer-events="none" font-size="8px" fill="#000000" x="67.66673995349319" y="3" transform="rotate(180 67.66673995349319 0)" font-family="sans-serif">trek</text></g><g class="relationship" transform="translate(-218.79104222198038 8.585142689034024) rotate(425.02737787619606)"><path class="outline" fill="#A5ABB6" stroke="none" d="M 21.40063509461097,12.933012701892217 L 21.90063509461097,12.06698729810778 A 96.56074000178862 96.56074000178862 0 0 0 58.3282336444941,24.273452170832996 L 58.2054842594874,25.26588987088296 A 97.56074000178862 97.56074000178862 0 0 1 21.40063509461097,12.933012701892217 Z M 77.60357055980583,25.720903778850698 L 77.52748908006137,24.723802174980804 A 96.56074000178862 96.56074000178862 0 0 0 114.48735410676039,14.238760543746789 L 113.11082108690881,11.573210535726254 L 120.93639296211691,11.47110849876319 L 116.3227314665625,17.792827221107505 L 114.94619844671092,15.12727721308697 A 97.56074000178862 97.56074000178862 0 0 1 77.60357055980583,25.720903778850698"/><text text-anchor="middle" pointer-events="none" font-size="8px" fill="#000000" x="67.90491243737463" y="28.476982379142456" font-family="sans-serif">trek</text></g><g class="relationship" transform="translate(-158.35552961314764 138.35136973613805) rotate(395.8426492316685)"><path class="outline" fill="#A5ABB6" stroke="none" d="M 25 0.5 L 59.64555162216661 0.5 L 59.64555162216661 -0.5 L 25 -0.5 Z M 78.98148912216661 0.5 L 113.62704074433321 0.5 L 113.62704074433321 3.5 L 120.62704074433321 0 L 113.62704074433321 -3.5 L 113.62704074433321 -0.5 L 78.98148912216661 -0.5 Z"/><text text-anchor="middle" pointer-events="none" font-size="8px" fill="#000000" x="69.31352037216661" y="3" font-family="sans-serif">trek</text></g><g class="relationship" transform="translate(-40.30614812032045 223.62492088250835) rotate(340.50984270845197)"><path class="outline" fill="#A5ABB6" stroke="none" d="M 25 0.5 L 58.52718167947474 0.5 L 58.52718167947474 -0.5 L 25 -0.5 Z M 77.86311917947474 0.5 L 111.39030085894947 0.5 L 111.39030085894947 3.5 L 118.39030085894947 0 L 111.39030085894947 -3.5 L 111.39030085894947 -0.5 L 77.86311917947474 -0.5 Z"/><text text-anchor="middle" pointer-events="none" font-size="8px" fill="#000000" x="68.19515042947474" y="3" font-family="sans-serif">trek</text></g><g class="relationship" transform="translate(205.07780894223922 -74.35621694176382) rotate(231.36729834436187)"><path class="outline" fill="#A5ABB6" stroke="none" d="M 25 0.5 L 37.48560640580419 0.5 L 37.48560640580419 -0.5 L 25 -0.5 Z M 99.21216890580419 0.5 L 111.69777531160838 0.5 L 111.69777531160838 3.5 L 118.69777531160838 0 L 111.69777531160838 -3.5 L 111.69777531160838 -0.5 L 99.21216890580419 -0.5 Z"/><text text-anchor="middle" pointer-events="none" font-size="8px" fill="#000000" x="68.34888765580419" y="3" transform="rotate(180 68.34888765580419 0)" font-family="sans-serif">PublicTransport</text></g><g class="relationship" transform="translate(205.07780894223922 -74.35621694176382) rotate(231.36729834436187)"><path class="outline" fill="#A5ABB6" stroke="none" d="M 21.40063509461097,-12.933012701892217 L 21.90063509461097,-12.06698729810778 A 97.11984418150018 97.11984418150018 0 0 1 58.60242075428319,-24.351933614354905 L 58.48032277800434,-25.344451666678694 A 98.11984418150018 98.11984418150018 0 0 0 21.40063509461097,-12.933012701892217 Z M 77.87824529736717,-25.797795350321294 L 77.80264705142739,-24.800656992213035 A 97.11984418150018 97.11984418150018 0 0 1 115.03826517231892,-14.243682058230851 L 113.66127445442866,-11.578368462639503 L 121.48682868168045,-11.47492264908548 L 116.8742527961726,-17.797433519019314 L 115.49726207828235,-15.132119923427966 A 98.11984418150018 98.11984418150018 0 0 0 77.87824529736717,-25.797795350321294"/><text text-anchor="middle" pointer-events="none" font-size="8px" fill="#000000" x="68.17973259067409" y="-22.551930572924647" transform="rotate(180 68.17973259067409 -25.551930572924647)" font-family="sans-serif">trek</text></g><g class="relationship" transform="translate(-218.79104222198038 8.585142689034024) rotate(425.02737787619606)"><path class="outline" fill="#A5ABB6" stroke="none" d="M 25 0.5 L 57.068795472810706 0.5 L 57.068795472810706 -0.5 L 25 -0.5 Z M 79.0805142228107 0.5 L 111.14930969562141 0.5 L 111.14930969562141 3.5 L 118.14930969562141 0 L 111.14930969562141 -3.5 L 111.14930969562141 -0.5 L 79.0805142228107 -0.5 Z"/><text text-anchor="middle" pointer-events="none" font-size="8px" fill="#000000" x="68.0746548478107" y="3" font-family="sans-serif">road</text></g><g class="relationship" transform="translate(-218.79104222198038 8.585142689034024) rotate(425.02737787619606)"><path class="outline" fill="#A5ABB6" stroke="none" d="M 21.40063509461097,-12.933012701892217 L 21.90063509461097,-12.06698729810778 A 96.56074000178862 96.56074000178862 0 0 1 37.848974633406186,-19.429835340260325 L 37.51413844158019,-20.3721116928467 A 97.56074000178862 97.56074000178862 0 0 0 21.40063509461097,-12.933012701892217 Z M 98.50161649200157,-21.802672950034378 L 98.21132952414978,-20.845733309150262 A 96.56074000178862 96.56074000178862 0 0 1 114.48735410676039,-14.238760543746789 L 113.11082108690881,-11.573210535726254 L 120.93639296211691,-11.47110849876319 L 116.3227314665625,-17.792827221107505 L 114.94619844671092,-15.12727721308697 A 97.56074000178862 97.56074000178862 0 0 0 98.50161649200157,-21.802672950034378"/><text text-anchor="middle" pointer-events="none" font-size="8px" fill="#000000" x="67.90491243737463" y="-22.476982379142456" font-family="sans-serif">PublicTransport</text></g></g><g class="layer nodes"><g class="node" aria-label="graph-node359" transform="translate(205.07780894223922,-74.35621694176382)"><circle class="outline" cx="0" cy="0" r="25" fill="#57C7E3" stroke="#23b3d7" stroke-width="2px"/><text class="caption" text-anchor="middle" pointer-events="none" x="0" y="5" font-size="10px" fill="#2A2C34" font-family="sans-serif"> Darjeeling</text></g><g class="node" aria-label="graph-node361" transform="translate(-41.49651944146209,-84.2502112829314)"><circle class="outline" cx="0" cy="0" r="25" fill="#F16667" stroke="#eb2728" stroke-width="2px"/><text class="caption" text-anchor="middle" pointer-events="none" x="0" y="5" font-size="10px" fill="#FFFFFF" font-family="sans-serif"> Sandakp…</text></g><g class="node" aria-label="graph-node369" transform="translate(-218.79104222198038,8.585142689034024)"><circle class="outline" cx="0" cy="0" r="25" fill="#57C7E3" stroke="#23b3d7" stroke-width="2px"/><text class="caption" text-anchor="middle" pointer-events="none" x="0" y="5" font-size="10px" fill="#2A2C34" font-family="sans-serif"> Darjeeling</text></g><g class="node" aria-label="graph-node371" transform="translate(94.86771945447191,175.78347540588683)"><circle class="outline" cx="0" cy="0" r="25" fill="#F16667" stroke="#eb2728" stroke-width="2px"/><text class="caption" text-anchor="middle" pointer-events="none" x="0" y="5" font-size="10px" fill="#FFFFFF" font-family="sans-serif"> Sandakp…</text></g><g class="node" aria-label="graph-node358" transform="translate(115.36361646656428,-186.60778395952548)"><circle class="outline" cx="0" cy="0" r="25" fill="#57C7E3" stroke="#23b3d7" stroke-width="2px"/><text class="caption" text-anchor="middle" pointer-events="none" x="0" y="5" font-size="10px" fill="#2A2C34" font-family="sans-serif"> Rimbik</text></g><g class="node" aria-label="graph-node360" transform="translate(-27.05553269815882,-225.84921341328626)"><circle class="outline" cx="0" cy="0" r="25" fill="#D9C8AE" stroke="#c0a378" stroke-width="2px"/><text class="caption" text-anchor="middle" pointer-events="none" x="0" y="5" font-size="10px" fill="#2A2C34" font-family="sans-serif"> BhikeBh…</text></g><g class="node" aria-label="graph-node368" transform="translate(-158.35552961314764,138.35136973613805)"><circle class="outline" cx="0" cy="0" r="25" fill="#57C7E3" stroke="#23b3d7" stroke-width="2px"/><text class="caption" text-anchor="middle" pointer-events="none" x="0" y="5" font-size="10px" fill="#2A2C34" font-family="sans-serif"> Rimbik</text></g><g class="node" aria-label="graph-node370" transform="translate(-40.30614812032045,223.62492088250835)"><circle class="outline" cx="0" cy="0" r="25" fill="#D9C8AE" stroke="#c0a378" stroke-width="2px"/><text class="caption" text-anchor="middle" pointer-events="none" x="0" y="5" font-size="10px" fill="#2A2C34" font-family="sans-serif"> BhikeBh…</text></g></g></svg>