<svg xmlns="http://www.w3.org/2000/svg" width="577.3289794921875" height="759.8018188476562" viewBox="-298.39080810546875 -515.6151733398438 577.3289794921875 759.8018188476562"><title>Neo4j Graph Visualization</title><desc>Created using Neo4j (http://www.neo4j.com/)</desc><g class="layer relationships"><g class="relationship" transform="translate(43.617174552311816 28.26441819841006) rotate(256.62294491292965)"><path class="outline" fill="#A5ABB6" stroke="none" d="M 25 0.5 L 102.22154796403436 0.5 L 102.22154796403436 -0.5 L 25 -0.5 Z M 136.66686046403436 0.5 L 213.88840842806871 0.5 L 213.88840842806871 3.5 L 220.88840842806871 0 L 213.88840842806871 -3.5 L 213.88840842806871 -0.5 L 136.66686046403436 -0.5 Z"/><text text-anchor="middle" pointer-events="none" font-size="8px" fill="#000000" x="119.44420421403436" y="3" transform="rotate(180 119.44420421403436 0)" font-family="sans-serif">ORIGIN</text></g><g class="relationship" transform="translate(43.617174552311816 28.26441819841006) rotate(273.51933875199137)"><path class="outline" fill="#A5ABB6" stroke="none" d="M 25 0.5 L 52.82994669280389 0.5 L 52.82994669280389 -0.5 L 25 -0.5 Z M 112.01744669280389 0.5 L 139.84739338560777 0.5 L 139.84739338560777 3.5 L 146.84739338560777 0 L 139.84739338560777 -3.5 L 139.84739338560777 -0.5 L 112.01744669280389 -0.5 Z"/><text text-anchor="middle" pointer-events="none" font-size="8px" fill="#000000" x="82.42369669280389" y="3" font-family="sans-serif">DESTINATION</text></g><g class="relationship" transform="translate(198.28960929343984 -47.894048208972634) rotate(217.62293057073458)"><path class="outline" fill="#A5ABB6" stroke="none" d="M 25 0.5 L 112.83077822967732 0.5 L 112.83077822967732 -0.5 L 25 -0.5 Z M 147.27609072967732 0.5 L 235.10686895935464 0.5 L 235.10686895935464 3.5 L 242.10686895935464 0 L 235.10686895935464 -3.5 L 235.10686895935464 -0.5 L 147.27609072967732 -0.5 Z"/><text text-anchor="middle" pointer-events="none" font-size="8px" fill="#000000" x="130.05343447967732" y="3" transform="rotate(180 130.05343447967732 0)" font-family="sans-serif">ORIGIN</text></g><g class="relationship" transform="translate(198.28960929343984 -47.894048208972634) rotate(244.04654368769127)"><path class="outline" fill="#A5ABB6" stroke="none" d="M 25 0.5 L 62.61310735546459 0.5 L 62.61310735546459 -0.5 L 25 -0.5 Z M 121.80060735546459 0.5 L 159.41371471092918 0.5 L 159.41371471092918 3.5 L 166.41371471092918 0 L 159.41371471092918 -3.5 L 159.41371471092918 -0.5 L 121.80060735546459 -0.5 Z"/><text text-anchor="middle" pointer-events="none" font-size="8px" fill="#000000" x="92.20685735546459" y="3" transform="rotate(180 92.20685735546459 0)" font-family="sans-serif">DESTINATION</text></g><g class="relationship" transform="translate(249.9381867871455 -132.64200087600074) rotate(196.56892453681047)"><path class="outline" fill="#A5ABB6" stroke="none" d="M 25 0.5 L 116.58331829008276 0.5 L 116.58331829008276 -0.5 L 25 -0.5 Z M 151.02863079008276 0.5 L 242.61194908016552 0.5 L 242.61194908016552 3.5 L 249.61194908016552 0 L 242.61194908016552 -3.5 L 242.61194908016552 -0.5 L 151.02863079008276 -0.5 Z"/><text text-anchor="middle" pointer-events="none" font-size="8px" fill="#000000" x="133.80597454008276" y="3" transform="rotate(180 133.80597454008276 0)" font-family="sans-serif">ORIGIN</text></g><g class="relationship" transform="translate(249.9381867871455 -132.64200087600074) rotate(212.82690963284875)"><path class="outline" fill="#A5ABB6" stroke="none" d="M 25 0.5 L 47.482886091061516 0.5 L 47.482886091061516 -0.5 L 25 -0.5 Z M 106.67038609106152 0.5 L 129.15327218212303 0.5 L 129.15327218212303 3.5 L 136.15327218212303 0 L 129.15327218212303 -3.5 L 129.15327218212303 -0.5 L 106.67038609106152 -0.5 Z"/><text text-anchor="middle" pointer-events="none" font-size="8px" fill="#000000" x="77.07663609106152" y="3" transform="rotate(180 77.07663609106152 0)" font-family="sans-serif">DESTINATION</text></g><g class="relationship" transform="translate(98.30891487596358 -52.99123820018482) rotate(234.76356082312054)"><path class="outline" fill="#A5ABB6" stroke="none" d="M 25 0.5 L 75.97524178756842 0.5 L 75.97524178756842 -0.5 L 25 -0.5 Z M 110.42055428756842 0.5 L 161.39579607513684 0.5 L 161.39579607513684 3.5 L 168.39579607513684 0 L 161.39579607513684 -3.5 L 161.39579607513684 -0.5 L 110.42055428756842 -0.5 Z"/><text text-anchor="middle" pointer-events="none" font-size="8px" fill="#000000" x="93.19789803756842" y="3" transform="rotate(180 93.19789803756842 0)" font-family="sans-serif">ORIGIN</text></g><g class="relationship" transform="translate(98.30891487596358 -52.99123820018482) rotate(453.64492467119976)"><path class="outline" fill="#A5ABB6" stroke="none" d="M 25 0.5 L 51.59010180727502 0.5 L 51.59010180727502 -0.5 L 25 -0.5 Z M 110.77760180727502 0.5 L 137.36770361455004 0.5 L 137.36770361455004 3.5 L 144.36770361455004 0 L 137.36770361455004 -3.5 L 137.36770361455004 -0.5 L 110.77760180727502 -0.5 Z"/><text text-anchor="middle" pointer-events="none" font-size="8px" fill="#000000" x="81.18385180727502" y="3" transform="rotate(180 81.18385180727502 0)" font-family="sans-serif">DESTINATION</text></g><g class="relationship" transform="translate(213.95170789714146 -223.677132773672) rotate(536.7947948123192)"><path class="outline" fill="#A5ABB6" stroke="none" d="M 25 0.5 L 93.0667774082196 0.5 L 93.0667774082196 -0.5 L 25 -0.5 Z M 127.5120899082196 0.5 L 195.5788673164392 0.5 L 195.5788673164392 3.5 L 202.5788673164392 0 L 195.5788673164392 -3.5 L 195.5788673164392 -0.5 L 127.5120899082196 -0.5 Z"/><text text-anchor="middle" pointer-events="none" font-size="8px" fill="#000000" x="110.2894336582196" y="3" transform="rotate(180 110.2894336582196 0)" font-family="sans-serif">ORIGIN</text></g><g class="relationship" transform="translate(213.95170789714146 -223.677132773672) rotate(537.8842074883398)"><path class="outline" fill="#A5ABB6" stroke="none" d="M 25 0.5 L 27.470902172159086 0.5 L 27.470902172159086 -0.5 L 25 -0.5 Z M 65.02949592215909 0.5 L 67.50039809431817 0.5 L 67.50039809431817 3.5 L 74.50039809431817 0 L 67.50039809431817 -3.5 L 67.50039809431817 -0.5 L 65.02949592215909 -0.5 Z"/><text text-anchor="middle" pointer-events="none" font-size="8px" fill="#000000" x="46.250199047159086" y="3" transform="rotate(180 46.250199047159086 0)" font-family="sans-serif">DESTI…</text></g><g class="relationship" transform="translate(139.06134327219138 -314.11557641074575) rotate(505.89328837108394)"><path class="outline" fill="#A5ABB6" stroke="none" d="M 25 0.5 L 71.2661612369153 0.5 L 71.2661612369153 -0.5 L 25 -0.5 Z M 105.7114737369153 0.5 L 151.9776349738306 0.5 L 151.9776349738306 3.5 L 158.9776349738306 0 L 151.9776349738306 -3.5 L 151.9776349738306 -0.5 L 105.7114737369153 -0.5 Z"/><text text-anchor="middle" pointer-events="none" font-size="8px" fill="#000000" x="88.4888174869153" y="3" transform="rotate(180 88.4888174869153 0)" font-family="sans-serif">ORIGIN</text></g><g class="relationship" transform="translate(139.06134327219138 -314.11557641074575) rotate(476.42185556736763)"><path class="outline" fill="#A5ABB6" stroke="none" d="M 25 0.5 L 62.29913228058729 0.5 L 62.29913228058729 -0.5 L 25 -0.5 Z M 121.48663228058729 0.5 L 158.78576456117457 0.5 L 158.78576456117457 3.5 L 165.78576456117457 0 L 158.78576456117457 -3.5 L 158.78576456117457 -0.5 L 121.48663228058729 -0.5 Z"/><text text-anchor="middle" pointer-events="none" font-size="8px" fill="#000000" x="91.89288228058729" y="3" transform="rotate(180 91.89288228058729 0)" font-family="sans-serif">DESTINATION</text></g><g class="relationship" transform="translate(237.010929856354 -319.59860605534504) rotate(516.5346323099145)"><path class="outline" fill="#A5ABB6" stroke="none" d="M 25 0.5 L 115.70045036679909 0.5 L 115.70045036679909 -0.5 L 25 -0.5 Z M 150.1457628667991 0.5 L 240.84621323359818 0.5 L 240.84621323359818 3.5 L 247.84621323359818 0 L 240.84621323359818 -3.5 L 240.84621323359818 -0.5 L 150.1457628667991 -0.5 Z"/><text text-anchor="middle" pointer-events="none" font-size="8px" fill="#000000" x="132.9231066167991" y="3" transform="rotate(180 132.9231066167991 0)" font-family="sans-serif">ORIGIN</text></g><g class="relationship" transform="translate(237.010929856354 -319.59860605534504) rotate(500.88632053140225)"><path class="outline" fill="#A5ABB6" stroke="none" d="M 25 0.5 L 45.84196832979565 0.5 L 45.84196832979565 -0.5 L 25 -0.5 Z M 105.02946832979565 0.5 L 125.8714366595913 0.5 L 125.8714366595913 3.5 L 132.8714366595913 0 L 125.8714366595913 -3.5 L 125.8714366595913 -0.5 L 105.02946832979565 -0.5 Z"/><text text-anchor="middle" pointer-events="none" font-size="8px" fill="#000000" x="75.43571832979565" y="3" transform="rotate(180 75.43571832979565 0)" font-family="sans-serif">DESTINATION</text></g><g class="relationship" transform="translate(33.02309136168828 -385.8590799380392) rotate(464.82510167635974)"><path class="outline" fill="#A5ABB6" stroke="none" d="M 25 0.5 L 69.7419786904127 0.5 L 69.7419786904127 -0.5 L 25 -0.5 Z M 104.1872911904127 0.5 L 148.9292698808254 0.5 L 148.9292698808254 3.5 L 155.9292698808254 0 L 148.9292698808254 -3.5 L 148.9292698808254 -0.5 L 104.1872911904127 -0.5 Z"/><text text-anchor="middle" pointer-events="none" font-size="8px" fill="#000000" x="86.9646349404127" y="3" transform="rotate(180 86.9646349404127 0)" font-family="sans-serif">ORIGIN</text></g><g class="relationship" transform="translate(33.02309136168828 -385.8590799380392) rotate(445.01916260723004)"><path class="outline" fill="#A5ABB6" stroke="none" d="M 25 0.5 L 88.66613345435225 0.5 L 88.66613345435225 -0.5 L 25 -0.5 Z M 147.85363345435223 0.5 L 211.5197669087045 0.5 L 211.5197669087045 3.5 L 218.5197669087045 0 L 211.5197669087045 -3.5 L 211.5197669087045 -0.5 L 147.85363345435223 -0.5 Z"/><text text-anchor="middle" pointer-events="none" font-size="8px" fill="#000000" x="118.25988345435225" y="3" font-family="sans-serif">DESTINATION</text></g><g class="relationship" transform="translate(127.3344538743949 -412.735100429136) rotate(484.86947746047105)"><path class="outline" fill="#A5ABB6" stroke="none" d="M 25 0.5 L 102.24692981370555 0.5 L 102.24692981370555 -0.5 L 25 -0.5 Z M 136.69224231370555 0.5 L 213.9391721274111 0.5 L 213.9391721274111 3.5 L 220.9391721274111 0 L 213.9391721274111 -3.5 L 213.9391721274111 -0.5 L 136.69224231370555 -0.5 Z"/><text text-anchor="middle" pointer-events="none" font-size="8px" fill="#000000" x="119.46958606370555" y="3" transform="rotate(180 119.46958606370555 0)" font-family="sans-serif">ORIGIN</text></g><g class="relationship" transform="translate(127.3344538743949 -412.735100429136) rotate(483.2068833590882)"><path class="outline" fill="#A5ABB6" stroke="none" d="M 25 0.5 L 41.174726023964624 0.5 L 41.174726023964624 -0.5 L 25 -0.5 Z M 100.36222602396462 0.5 L 116.53695204792925 0.5 L 116.53695204792925 3.5 L 123.53695204792925 0 L 116.53695204792925 -3.5 L 116.53695204792925 -0.5 L 100.36222602396462 -0.5 Z"/><text text-anchor="middle" pointer-events="none" font-size="8px" fill="#000000" x="70.76847602396462" y="3" transform="rotate(180 70.76847602396462 0)" font-family="sans-serif">DESTINATION</text></g><g class="relationship" transform="translate(152.49547367572615 -133.34957830862857) rotate(205.08649342868182)"><path class="outline" fill="#A5ABB6" stroke="none" d="M 25 0.5 L 70.79348851845336 0.5 L 70.79348851845336 -0.5 L 25 -0.5 Z M 105.23880101845336 0.5 L 151.03228953690672 0.5 L 151.03228953690672 3.5 L 158.03228953690672 0 L 151.03228953690672 -3.5 L 151.03228953690672 -0.5 L 105.23880101845336 -0.5 Z"/><text text-anchor="middle" pointer-events="none" font-size="8px" fill="#000000" x="88.01614476845336" y="3" transform="rotate(180 88.01614476845336 0)" font-family="sans-serif">ORIGIN</text></g><g class="relationship" transform="translate(152.49547367572615 -133.34957830862857) rotate(464.5987642156014)"><path class="outline" fill="#A5ABB6" stroke="none" d="M 25 0.5 L 95.75800184917554 0.5 L 95.75800184917554 -0.5 L 25 -0.5 Z M 154.94550184917554 0.5 L 225.70350369835108 0.5 L 225.70350369835108 3.5 L 232.70350369835108 0 L 225.70350369835108 -3.5 L 225.70350369835108 -0.5 L 154.94550184917554 -0.5 Z"/><text text-anchor="middle" pointer-events="none" font-size="8px" fill="#000000" x="125.35175184917554" y="3" transform="rotate(180 125.35175184917554 0)" font-family="sans-serif">DESTINATION</text></g><g class="relationship" transform="translate(-82.2881380705029 -418.1455378452277) rotate(431.5768235372899)"><path class="outline" fill="#A5ABB6" stroke="none" d="M 25 0.5 L 88.47008385968013 0.5 L 88.47008385968013 -0.5 L 25 -0.5 Z M 122.91539635968013 0.5 L 186.38548021936026 0.5 L 186.38548021936026 3.5 L 193.38548021936026 0 L 186.38548021936026 -3.5 L 186.38548021936026 -0.5 L 122.91539635968013 -0.5 Z"/><text text-anchor="middle" pointer-events="none" font-size="8px" fill="#000000" x="105.69274010968013" y="3" font-family="sans-serif">ORIGIN</text></g><g class="relationship" transform="translate(-82.2881380705029 -418.1455378452277) rotate(207.03298005745478)"><path class="outline" fill="#A5ABB6" stroke="none" d="M 25 0.5 L 42.22983868404805 0.5 L 42.22983868404805 -0.5 L 25 -0.5 Z M 101.41733868404805 0.5 L 118.6471773680961 0.5 L 118.6471773680961 3.5 L 125.6471773680961 0 L 118.6471773680961 -3.5 L 118.6471773680961 -0.5 L 101.41733868404805 -0.5 Z"/><text text-anchor="middle" pointer-events="none" font-size="8px" fill="#000000" x="71.82358868404805" y="3" transform="rotate(180 71.82358868404805 0)" font-family="sans-serif">DESTINATION</text></g><g class="relationship" transform="translate(-43.464011099013284 -327.40662093831116) rotate(435.4650390389372)"><path class="outline" fill="#A5ABB6" stroke="none" d="M 25 0.5 L 39.429495352361926 0.5 L 39.429495352361926 -0.5 L 25 -0.5 Z M 73.87480785236193 0.5 L 88.30430320472385 0.5 L 88.30430320472385 3.5 L 95.30430320472385 0 L 88.30430320472385 -3.5 L 88.30430320472385 -0.5 L 73.87480785236193 -0.5 Z"/><text text-anchor="middle" pointer-events="none" font-size="8px" fill="#000000" x="56.652151602361926" y="3" font-family="sans-serif">ORIGIN</text></g><g class="relationship" transform="translate(-43.464011099013284 -327.40662093831116) rotate(394.2093562699509)"><path class="outline" fill="#A5ABB6" stroke="none" d="M 25 0.5 L 62.423359336444534 0.5 L 62.423359336444534 -0.5 L 25 -0.5 Z M 121.61085933644453 0.5 L 159.03421867288907 0.5 L 159.03421867288907 3.5 L 166.03421867288907 0 L 159.03421867288907 -3.5 L 159.03421867288907 -0.5 L 121.61085933644453 -0.5 Z"/><text text-anchor="middle" pointer-events="none" font-size="8px" fill="#000000" x="92.01710933644453" y="3" font-family="sans-serif">DESTINATION</text></g><g class="relationship" transform="translate(2.9500060859994726 -59.22475545556876) rotate(263.89771421360035)"><path class="outline" fill="#A5ABB6" stroke="none" d="M 25 0.5 L 55.573630958397786 0.5 L 55.573630958397786 -0.5 L 25 -0.5 Z M 90.01894345839779 0.5 L 120.59257441679557 0.5 L 120.59257441679557 3.5 L 127.59257441679557 0 L 120.59257441679557 -3.5 L 120.59257441679557 -0.5 L 90.01894345839779 -0.5 Z"/><text text-anchor="middle" pointer-events="none" font-size="8px" fill="#000000" x="72.79628720839779" y="3" transform="rotate(180 72.79628720839779 0)" font-family="sans-serif">ORIGIN</text></g><g class="relationship" transform="translate(2.9500060859994726 -59.22475545556876) rotate(424.2348936735439)"><path class="outline" fill="#A5ABB6" stroke="none" d="M 25 0.5 L 64.20904867571005 0.5 L 64.20904867571005 -0.5 L 25 -0.5 Z M 123.39654867571005 0.5 L 162.6055973514201 0.5 L 162.6055973514201 3.5 L 169.6055973514201 0 L 162.6055973514201 -3.5 L 162.6055973514201 -0.5 L 123.39654867571005 -0.5 Z"/><text text-anchor="middle" pointer-events="none" font-size="8px" fill="#000000" x="93.80279867571005" y="3" font-family="sans-serif">DESTINATION</text></g><g class="relationship" transform="translate(-142.6617969099003 -339.22979529833646) rotate(404.7523910722367)"><path class="outline" fill="#A5ABB6" stroke="none" d="M 25 0.5 L 70.37749820197992 0.5 L 70.37749820197992 -0.5 L 25 -0.5 Z M 104.82281070197992 0.5 L 150.20030890395984 0.5 L 150.20030890395984 3.5 L 157.20030890395984 0 L 150.20030890395984 -3.5 L 150.20030890395984 -0.5 L 104.82281070197992 -0.5 Z"/><text text-anchor="middle" pointer-events="none" font-size="8px" fill="#000000" x="87.60015445197992" y="3" font-family="sans-serif">ORIGIN</text></g><g class="relationship" transform="translate(-142.6617969099003 -339.22979529833646) rotate(375.0643850896339)"><path class="outline" fill="#A5ABB6" stroke="none" d="M 25 0.5 L 64.58708676705871 0.5 L 64.58708676705871 -0.5 L 25 -0.5 Z M 123.77458676705871 0.5 L 163.36167353411741 0.5 L 163.36167353411741 3.5 L 170.36167353411741 0 L 163.36167353411741 -3.5 L 163.36167353411741 -0.5 L 123.77458676705871 -0.5 Z"/><text text-anchor="middle" pointer-events="none" font-size="8px" fill="#000000" x="94.18083676705871" y="3" font-family="sans-serif">DESTINATION</text></g><g class="relationship" transform="translate(-104.29284698926489 -248.60115590037066) rotate(382.4710026037785)"><path class="outline" fill="#A5ABB6" stroke="none" d="M 25 0.5 L 28.52761015002801 0.5 L 28.52761015002801 -0.5 L 25 -0.5 Z M 62.97292265002801 0.5 L 66.50053280005602 0.5 L 66.50053280005602 3.5 L 73.50053280005602 0 L 66.50053280005602 -3.5 L 66.50053280005602 -0.5 L 62.97292265002801 -0.5 Z"/><text text-anchor="middle" pointer-events="none" font-size="8px" fill="#000000" x="45.75026640002801" y="3" font-family="sans-serif">ORIGIN</text></g><g class="relationship" transform="translate(-104.29284698926489 -248.60115590037066) rotate(367.4460315083495)"><path class="outline" fill="#A5ABB6" stroke="none" d="M 25 0.5 L 77.24267177609033 0.5 L 77.24267177609033 -0.5 L 25 -0.5 Z M 136.43017177609033 0.5 L 188.67284355218067 0.5 L 188.67284355218067 3.5 L 195.67284355218067 0 L 188.67284355218067 -3.5 L 188.67284355218067 -0.5 L 136.43017177609033 -0.5 Z"/><text text-anchor="middle" pointer-events="none" font-size="8px" fill="#000000" x="106.83642177609033" y="3" font-family="sans-serif">DESTINATION</text></g><g class="relationship" transform="translate(-92.61439062912757 -33.57190503260541) rotate(294.0991853951605)"><path class="outline" fill="#A5ABB6" stroke="none" d="M 25 0.5 L 76.43609748914457 0.5 L 76.43609748914457 -0.5 L 25 -0.5 Z M 110.88140998914457 0.5 L 162.31750747828914 0.5 L 162.31750747828914 3.5 L 169.31750747828914 0 L 162.31750747828914 -3.5 L 162.31750747828914 -0.5 L 110.88140998914457 -0.5 Z"/><text text-anchor="middle" pointer-events="none" font-size="8px" fill="#000000" x="93.65875373914457" y="3" font-family="sans-serif">ORIGIN</text></g><g class="relationship" transform="translate(-92.61439062912757 -33.57190503260541) rotate(399.7070230131738)"><path class="outline" fill="#A5ABB6" stroke="none" d="M 25 0.5 L 83.99393329260427 0.5 L 83.99393329260427 -0.5 L 25 -0.5 Z M 143.18143329260425 0.5 L 202.17536658520854 0.5 L 202.17536658520854 3.5 L 209.17536658520854 0 L 202.17536658520854 -3.5 L 202.17536658520854 -0.5 L 143.18143329260425 -0.5 Z"/><text text-anchor="middle" pointer-events="none" font-size="8px" fill="#000000" x="113.58768329260427" y="3" font-family="sans-serif">DESTINATION</text></g><g class="relationship" transform="translate(-69.03888767347105 -129.10462949026206) rotate(304.2688252798947)"><path class="outline" fill="#A5ABB6" stroke="none" d="M 25 0.5 L 28.7979097712537 0.5 L 28.7979097712537 -0.5 L 25 -0.5 Z M 63.2432222712537 0.5 L 67.0411320425074 0.5 L 67.0411320425074 3.5 L 74.0411320425074 0 L 67.0411320425074 -3.5 L 67.0411320425074 -0.5 L 63.2432222712537 -0.5 Z"/><text text-anchor="middle" pointer-events="none" font-size="8px" fill="#000000" x="46.0205660212537" y="3" font-family="sans-serif">ORIGIN</text></g><g class="relationship" transform="translate(-69.03888767347105 -129.10462949026206) rotate(333.655112111614)"><path class="outline" fill="#A5ABB6" stroke="none" d="M 25 0.5 L 69.32229491486511 0.5 L 69.32229491486511 -0.5 L 25 -0.5 Z M 128.5097949148651 0.5 L 172.83208982973022 0.5 L 172.83208982973022 3.5 L 179.83208982973022 0 L 172.83208982973022 -3.5 L 172.83208982973022 -0.5 L 128.5097949148651 -0.5 Z"/><text text-anchor="middle" pointer-events="none" font-size="8px" fill="#000000" x="98.91604491486511" y="3" font-family="sans-serif">DESTINATION</text></g><g class="relationship" transform="translate(-185.04151425783473 -70.85959467796799) rotate(320.79987698059955)"><path class="outline" fill="#A5ABB6" stroke="none" d="M 25 0.5 L 90.10506257632423 0.5 L 90.10506257632423 -0.5 L 25 -0.5 Z M 124.55037507632423 0.5 L 189.65543765264846 0.5 L 189.65543765264846 3.5 L 196.65543765264846 0 L 189.65543765264846 -3.5 L 189.65543765264846 -0.5 L 124.55037507632423 -0.5 Z"/><text text-anchor="middle" pointer-events="none" font-size="8px" fill="#000000" x="107.32771882632423" y="3" font-family="sans-serif">ORIGIN</text></g><g class="relationship" transform="translate(-185.04151425783473 -70.85959467796799) rotate(481.9138870011219)"><path class="outline" fill="#A5ABB6" stroke="none" d="M 25 0.5 L 46.68516178193717 0.5 L 46.68516178193717 -0.5 L 25 -0.5 Z M 105.87266178193717 0.5 L 127.55782356387434 0.5 L 127.55782356387434 3.5 L 134.55782356387434 0 L 127.55782356387434 -3.5 L 127.55782356387434 -0.5 L 105.87266178193717 -0.5 Z"/><text text-anchor="middle" pointer-events="none" font-size="8px" fill="#000000" x="76.27891178193717" y="3" transform="rotate(180 76.27891178193717 0)" font-family="sans-serif">DESTINATION</text></g><g class="relationship" transform="translate(-160.75188330567673 -167.0119317281273) rotate(343.40897404218174)"><path class="outline" fill="#A5ABB6" stroke="none" d="M 25 0.5 L 56.22108267693447 0.5 L 56.22108267693447 -0.5 L 25 -0.5 Z M 90.66639517693447 0.5 L 121.88747785386894 0.5 L 121.88747785386894 3.5 L 128.88747785386894 0 L 121.88747785386894 -3.5 L 121.88747785386894 -0.5 L 90.66639517693447 -0.5 Z"/><text text-anchor="middle" pointer-events="none" font-size="8px" fill="#000000" x="73.44373892693447" y="3" font-family="sans-serif">ORIGIN</text></g><g class="relationship" transform="translate(-160.75188330567673 -167.0119317281273) rotate(366.30681389638295)"><path class="outline" fill="#A5ABB6" stroke="none" d="M 25 0.5 L 75.01955483549105 0.5 L 75.01955483549105 -0.5 L 25 -0.5 Z M 134.20705483549105 0.5 L 184.2266096709821 0.5 L 184.2266096709821 3.5 L 191.2266096709821 0 L 184.2266096709821 -3.5 L 184.2266096709821 -0.5 L 134.20705483549105 -0.5 Z"/><text text-anchor="middle" pointer-events="none" font-size="8px" fill="#000000" x="104.61330483549105" y="3" font-family="sans-serif">DESTINATION</text></g><g class="relationship" transform="translate(-51.331618806504224 54.03553357957715) rotate(278.1735367467682)"><path class="outline" fill="#A5ABB6" stroke="none" d="M 25 0.5 L 113.13114484055893 0.5 L 113.13114484055893 -0.5 L 25 -0.5 Z M 147.57645734055893 0.5 L 235.70760218111786 0.5 L 235.70760218111786 3.5 L 242.70760218111786 0 L 235.70760218111786 -3.5 L 235.70760218111786 -0.5 L 147.57645734055893 -0.5 Z"/><text text-anchor="middle" pointer-events="none" font-size="8px" fill="#000000" x="130.35380109055893" y="3" font-family="sans-serif">ORIGIN</text></g><g class="relationship" transform="translate(-51.331618806504224 54.03553357957715) rotate(462.4444046707099)"><path class="outline" fill="#A5ABB6" stroke="none" d="M 25 0.5 L 49.42042608004404 0.5 L 49.42042608004404 -0.5 L 25 -0.5 Z M 108.60792608004404 0.5 L 133.02835216008808 0.5 L 133.02835216008808 3.5 L 140.02835216008808 0 L 133.02835216008808 -3.5 L 133.02835216008808 -0.5 L 108.60792608004404 -0.5 Z"/><text text-anchor="middle" pointer-events="none" font-size="8px" fill="#000000" x="79.01417608004404" y="3" transform="rotate(180 79.01417608004404 0)" font-family="sans-serif">DESTINATION</text></g><g class="relationship" transform="translate(141.77774768784968 33.25635570127199) rotate(237.58843960000308)"><path class="outline" fill="#A5ABB6" stroke="none" d="M 25 0.5 L 123.91328571556346 0.5 L 123.91328571556346 -0.5 L 25 -0.5 Z M 158.35859821556346 0.5 L 257.2718839311269 0.5 L 257.2718839311269 3.5 L 264.2718839311269 0 L 257.2718839311269 -3.5 L 257.2718839311269 -0.5 L 158.35859821556346 -0.5 Z"/><text text-anchor="middle" pointer-events="none" font-size="8px" fill="#000000" x="141.13594196556346" y="3" transform="rotate(180 141.13594196556346 0)" font-family="sans-serif">ORIGIN</text></g><g class="relationship" transform="translate(141.77774768784968 33.25635570127199) rotate(421.843743738656)"><path class="outline" fill="#A5ABB6" stroke="none" d="M 25 0.5 L 51.82236679859706 0.5 L 51.82236679859706 -0.5 L 25 -0.5 Z M 111.00986679859706 0.5 L 137.83223359719412 0.5 L 137.83223359719412 3.5 L 144.83223359719412 0 L 137.83223359719412 -3.5 L 137.83223359719412 -0.5 L 111.00986679859706 -0.5 Z"/><text text-anchor="middle" pointer-events="none" font-size="8px" fill="#000000" x="81.41611679859706" y="3" font-family="sans-serif">DESTINATION</text></g></g><g class="layer nodes"><g class="node" aria-label="graph-node383" transform="translate(-13.271155250202934,-210.952695176802)"><circle class="outline" cx="0" cy="0" r="25" fill="#8DCC93" stroke="#5db665" stroke-width="2px"/><text class="caption" text-anchor="middle" pointer-events="none" x="0" y="5" font-size="10px" fill="#2A2C34" font-family="sans-serif"> LAX</text></g><g class="node" aria-label="graph-node419" transform="translate(54.16610092931635,-143.25889440288145)"><circle class="outline" cx="0" cy="0" r="25" fill="#8DCC93" stroke="#5db665" stroke-width="2px"/><text class="caption" text-anchor="middle" pointer-events="none" x="0" y="5" font-size="10px" fill="#2A2C34" font-family="sans-serif"> FAT</text></g><g class="node" aria-label="graph-node418" transform="translate(114.51914363565626,-220.00366230102472)"><circle class="outline" cx="0" cy="0" r="25" fill="#8DCC93" stroke="#5db665" stroke-width="2px"/><text class="caption" text-anchor="middle" pointer-events="none" x="0" y="5" font-size="10px" fill="#2A2C34" font-family="sans-serif"> ABQ</text></g><g class="node" aria-label="graph-node391" transform="translate(87.5416956948475,116.033866499596)"><circle class="outline" cx="0" cy="0" r="25" fill="#8DCC93" stroke="#5db665" stroke-width="2px"/><text class="caption" text-anchor="middle" pointer-events="none" x="0" y="5" font-size="10px" fill="#2A2C34" font-family="sans-serif"> SMF</text></g><g class="node" aria-label="graph-node420" transform="translate(45.98615027721483,-288.45445179247236)"><circle class="outline" cx="0" cy="0" r="25" fill="#8DCC93" stroke="#5db665" stroke-width="2px"/><text class="caption" text-anchor="middle" pointer-events="none" x="0" y="5" font-size="10px" fill="#2A2C34" font-family="sans-serif"> TUS</text></g><g class="node" aria-label="graph-node403" transform="translate(-216.47636633912668,-486.6151766868509)"><circle class="outline" cx="0" cy="0" r="25" fill="#8DCC93" stroke="#5db665" stroke-width="2px"/><text class="caption" text-anchor="middle" pointer-events="none" x="0" y="5" font-size="10px" fill="#2A2C34" font-family="sans-serif"> LAS</text></g><g class="node" aria-label="graph-node394" transform="translate(-269.39081434257497,64.58003997767813)"><circle class="outline" cx="0" cy="0" r="25" fill="#8DCC93" stroke="#5db665" stroke-width="2px"/><text class="caption" text-anchor="middle" pointer-events="none" x="0" y="5" font-size="10px" fill="#2A2C34" font-family="sans-serif"> BOS</text></g><g class="node" aria-label="graph-node379" transform="translate(-86.89394001459257,215.18663759989343)"><circle class="outline" cx="0" cy="0" r="25" fill="#8DCC93" stroke="#5db665" stroke-width="2px"/><text class="caption" text-anchor="middle" pointer-events="none" x="0" y="5" font-size="10px" fill="#2A2C34" font-family="sans-serif"> EWR</text></g><g class="node" aria-label="graph-node380" transform="translate(221.91780445023878,182.99131778672805)"><circle class="outline" cx="0" cy="0" r="25" fill="#8DCC93" stroke="#5db665" stroke-width="2px"/><text class="caption" text-anchor="middle" pointer-events="none" x="0" y="5" font-size="10px" fill="#2A2C34" font-family="sans-serif"> IAH</text></g><g class="node" aria-label="graph-node1337" transform="translate(43.617174552311816,28.26441819841006)"><circle class="outline" cx="0" cy="0" r="25" fill="#ECB5C9" stroke="#da7298" stroke-width="2px"/><text class="caption" text-anchor="middle" pointer-events="none" x="0" y="0" font-size="10px" fill="#2A2C34" font-family="sans-serif"> 11/1/2015</text><text class="caption" text-anchor="middle" pointer-events="none" x="0" y="10" font-size="10px" fill="#2A2C34" font-family="sans-serif"> 02:27:…</text></g><g class="node" aria-label="graph-node1305" transform="translate(198.28960929343984,-47.894048208972634)"><circle class="outline" cx="0" cy="0" r="25" fill="#ECB5C9" stroke="#da7298" stroke-width="2px"/><text class="caption" text-anchor="middle" pointer-events="none" x="0" y="0" font-size="10px" fill="#2A2C34" font-family="sans-serif"> 11/1/2015</text><text class="caption" text-anchor="middle" pointer-events="none" x="0" y="10" font-size="10px" fill="#2A2C34" font-family="sans-serif"> 05:43:…</text></g><g class="node" aria-label="graph-node1349" transform="translate(249.9381867871455,-132.64200087600074)"><circle class="outline" cx="0" cy="0" r="25" fill="#ECB5C9" stroke="#da7298" stroke-width="2px"/><text class="caption" text-anchor="middle" pointer-events="none" x="0" y="0" font-size="10px" fill="#2A2C34" font-family="sans-serif"> 11/1/2015</text><text class="caption" text-anchor="middle" pointer-events="none" x="0" y="10" font-size="10px" fill="#2A2C34" font-family="sans-serif"> 17:17:…</text></g><g class="node" aria-label="graph-node1381" transform="translate(98.30891487596358,-52.99123820018482)"><circle class="outline" cx="0" cy="0" r="25" fill="#ECB5C9" stroke="#da7298" stroke-width="2px"/><text class="caption" text-anchor="middle" pointer-events="none" x="0" y="0" font-size="10px" fill="#2A2C34" font-family="sans-serif"> 11/4/2015</text><text class="caption" text-anchor="middle" pointer-events="none" x="0" y="10" font-size="10px" fill="#2A2C34" font-family="sans-serif"> 05:06:…</text></g><g class="node" aria-label="graph-node1353" transform="translate(213.95170789714146,-223.677132773672)"><circle class="outline" cx="0" cy="0" r="25" fill="#ECB5C9" stroke="#da7298" stroke-width="2px"/><text class="caption" text-anchor="middle" pointer-events="none" x="0" y="0" font-size="10px" fill="#2A2C34" font-family="sans-serif"> 11/2/2015</text><text class="caption" text-anchor="middle" pointer-events="none" x="0" y="10" font-size="10px" fill="#2A2C34" font-family="sans-serif"> 15:15:…</text></g><g class="node" aria-label="graph-node1329" transform="translate(139.06134327219138,-314.11557641074575)"><circle class="outline" cx="0" cy="0" r="25" fill="#ECB5C9" stroke="#da7298" stroke-width="2px"/><text class="caption" text-anchor="middle" pointer-events="none" x="0" y="0" font-size="10px" fill="#2A2C34" font-family="sans-serif"> 11/3/2015</text><text class="caption" text-anchor="middle" pointer-events="none" x="0" y="10" font-size="10px" fill="#2A2C34" font-family="sans-serif"> 11:45:…</text></g><g class="node" aria-label="graph-node1345" transform="translate(237.010929856354,-319.59860605534504)"><circle class="outline" cx="0" cy="0" r="25" fill="#ECB5C9" stroke="#da7298" stroke-width="2px"/><text class="caption" text-anchor="middle" pointer-events="none" x="0" y="0" font-size="10px" fill="#2A2C34" font-family="sans-serif"> 11/3/2015</text><text class="caption" text-anchor="middle" pointer-events="none" x="0" y="10" font-size="10px" fill="#2A2C34" font-family="sans-serif"> 23:26:…</text></g><g class="node" aria-label="graph-node1333" transform="translate(33.02309136168828,-385.8590799380392)"><circle class="outline" cx="0" cy="0" r="25" fill="#ECB5C9" stroke="#da7298" stroke-width="2px"/><text class="caption" text-anchor="middle" pointer-events="none" x="0" y="0" font-size="10px" fill="#2A2C34" font-family="sans-serif"> 11/2/2015</text><text class="caption" text-anchor="middle" pointer-events="none" x="0" y="10" font-size="10px" fill="#2A2C34" font-family="sans-serif"> 09:18:…</text></g><g class="node" aria-label="graph-node1357" transform="translate(127.3344538743949,-412.735100429136)"><circle class="outline" cx="0" cy="0" r="25" fill="#ECB5C9" stroke="#da7298" stroke-width="2px"/><text class="caption" text-anchor="middle" pointer-events="none" x="0" y="0" font-size="10px" fill="#2A2C34" font-family="sans-serif"> 11/1/2015</text><text class="caption" text-anchor="middle" pointer-events="none" x="0" y="10" font-size="10px" fill="#2A2C34" font-family="sans-serif"> 05:51:…</text></g><g class="node" aria-label="graph-node1385" transform="translate(152.49547367572615,-133.34957830862857)"><circle class="outline" cx="0" cy="0" r="25" fill="#ECB5C9" stroke="#da7298" stroke-width="2px"/><text class="caption" text-anchor="middle" pointer-events="none" x="0" y="0" font-size="10px" fill="#2A2C34" font-family="sans-serif"> 11/3/2015</text><text class="caption" text-anchor="middle" pointer-events="none" x="0" y="10" font-size="10px" fill="#2A2C34" font-family="sans-serif"> 13:44:…</text></g><g class="node" aria-label="graph-node1037" transform="translate(-82.2881380705029,-418.1455378452277)"><circle class="outline" cx="0" cy="0" r="25" fill="#ECB5C9" stroke="#da7298" stroke-width="2px"/><text class="caption" text-anchor="middle" pointer-events="none" x="0" y="5" font-size="10px" fill="#2A2C34" font-family="sans-serif"> 11/29/20…</text></g><g class="node" aria-label="graph-node1297" transform="translate(-43.464011099013284,-327.40662093831116)"><circle class="outline" cx="0" cy="0" r="25" fill="#ECB5C9" stroke="#da7298" stroke-width="2px"/><text class="caption" text-anchor="middle" pointer-events="none" x="0" y="0" font-size="10px" fill="#2A2C34" font-family="sans-serif"> 11/2/2015</text><text class="caption" text-anchor="middle" pointer-events="none" x="0" y="10" font-size="10px" fill="#2A2C34" font-family="sans-serif"> 04:43:…</text></g><g class="node" aria-label="graph-node1377" transform="translate(2.9500060859994726,-59.22475545556876)"><circle class="outline" cx="0" cy="0" r="25" fill="#ECB5C9" stroke="#da7298" stroke-width="2px"/><text class="caption" text-anchor="middle" pointer-events="none" x="0" y="0" font-size="10px" fill="#2A2C34" font-family="sans-serif"> 11/1/2015</text><text class="caption" text-anchor="middle" pointer-events="none" x="0" y="10" font-size="10px" fill="#2A2C34" font-family="sans-serif"> 12:26:…</text></g><g class="node" aria-label="graph-node1361" transform="translate(-142.6617969099003,-339.22979529833646)"><circle class="outline" cx="0" cy="0" r="25" fill="#ECB5C9" stroke="#da7298" stroke-width="2px"/><text class="caption" text-anchor="middle" pointer-events="none" x="0" y="0" font-size="10px" fill="#2A2C34" font-family="sans-serif"> 11/2/2015</text><text class="caption" text-anchor="middle" pointer-events="none" x="0" y="10" font-size="10px" fill="#2A2C34" font-family="sans-serif"> 09:52:…</text></g><g class="node" aria-label="graph-node1309" transform="translate(-104.29284698926489,-248.60115590037066)"><circle class="outline" cx="0" cy="0" r="25" fill="#ECB5C9" stroke="#da7298" stroke-width="2px"/><text class="caption" text-anchor="middle" pointer-events="none" x="0" y="0" font-size="10px" fill="#2A2C34" font-family="sans-serif"> 11/3/2015</text><text class="caption" text-anchor="middle" pointer-events="none" x="0" y="10" font-size="10px" fill="#2A2C34" font-family="sans-serif"> 21:46:…</text></g><g class="node" aria-label="graph-node1373" transform="translate(-92.61439062912757,-33.57190503260541)"><circle class="outline" cx="0" cy="0" r="25" fill="#ECB5C9" stroke="#da7298" stroke-width="2px"/><text class="caption" text-anchor="middle" pointer-events="none" x="0" y="0" font-size="10px" fill="#2A2C34" font-family="sans-serif"> 11/2/2015</text><text class="caption" text-anchor="middle" pointer-events="none" x="0" y="10" font-size="10px" fill="#2A2C34" font-family="sans-serif"> 11:49:…</text></g><g class="node" aria-label="graph-node1301" transform="translate(-69.03888767347105,-129.10462949026206)"><circle class="outline" cx="0" cy="0" r="25" fill="#ECB5C9" stroke="#da7298" stroke-width="2px"/><text class="caption" text-anchor="middle" pointer-events="none" x="0" y="0" font-size="10px" fill="#2A2C34" font-family="sans-serif"> 11/4/2015</text><text class="caption" text-anchor="middle" pointer-events="none" x="0" y="10" font-size="10px" fill="#2A2C34" font-family="sans-serif"> 15:09:…</text></g><g class="node" aria-label="graph-node1025" transform="translate(-185.04151425783473,-70.85959467796799)"><circle class="outline" cx="0" cy="0" r="25" fill="#ECB5C9" stroke="#da7298" stroke-width="2px"/><text class="caption" text-anchor="middle" pointer-events="none" x="0" y="5" font-size="10px" fill="#2A2C34" font-family="sans-serif"> 11/29/20…</text></g><g class="node" aria-label="graph-node1341" transform="translate(-160.75188330567673,-167.0119317281273)"><circle class="outline" cx="0" cy="0" r="25" fill="#ECB5C9" stroke="#da7298" stroke-width="2px"/><text class="caption" text-anchor="middle" pointer-events="none" x="0" y="0" font-size="10px" fill="#2A2C34" font-family="sans-serif"> 11/4/2015</text><text class="caption" text-anchor="middle" pointer-events="none" x="0" y="10" font-size="10px" fill="#2A2C34" font-family="sans-serif"> 15:13:…</text></g><g class="node" aria-label="graph-node921" transform="translate(-51.331618806504224,54.03553357957715)"><circle class="outline" cx="0" cy="0" r="25" fill="#ECB5C9" stroke="#da7298" stroke-width="2px"/><text class="caption" text-anchor="middle" pointer-events="none" x="0" y="5" font-size="10px" fill="#2A2C34" font-family="sans-serif"> 11/29/20…</text></g><g class="node" aria-label="graph-node481" transform="translate(141.77774768784968,33.25635570127199)"><circle class="outline" cx="0" cy="0" r="25" fill="#ECB5C9" stroke="#da7298" stroke-width="2px"/><text class="caption" text-anchor="middle" pointer-events="none" x="0" y="5" font-size="10px" fill="#2A2C34" font-family="sans-serif"> 11/30/20…</text></g></g></svg>