<svg xmlns="http://www.w3.org/2000/svg" width="694.015380859375" height="827.32275390625" viewBox="-355.5749816894531 -395.2003479003906 694.015380859375 827.32275390625"><title>Neo4j Graph Visualization</title><desc>Created using Neo4j (http://www.neo4j.com/)</desc><g class="layer relationships"><g class="relationship" transform="translate(-32.15328700635123 233.61341279401566) rotate(326.2101032454358)"><path class="outline" fill="#A5ABB6" stroke="none" d="M 24.018736134675446,-6.953439040707552 L 24.277555179777966,-5.987513214418485 A 219.9440642602359 219.9440642602359 0 0 1 69.24092230308935,-13.156379760594518 L 69.18653417670492,-14.154899631056992 A 220.9440642602359 220.9440642602359 0 0 0 24.018736134675446,-6.953439040707552 Z M 88.5590366608152,-14.359445743157835 L 88.52574421271134,-13.360000090358596 A 219.9440642602359 219.9440642602359 0 0 1 133.6304563198092,-7.142124540109864 L 132.91535829756572,-4.228598357185905 L 140.54786708367234,-5.959150185362392 L 134.58392034946718,-11.026826117341809 L 133.86882232722368,-8.113299934417851 A 220.9440642602359 220.9440642602359 0 0 0 88.5590366608152,-14.359445743157835"/><text text-anchor="middle" pointer-events="none" font-size="8px" fill="#000000" x="78.87582137093125" y="-10.96963854444391" font-family="sans-serif">trek</text></g><g class="relationship" transform="translate(104.83176595950295 141.94488904411187) rotate(397.88816211233484)"><path class="outline" fill="#A5ABB6" stroke="none" d="M 21.40063509461097,-12.933012701892217 L 21.90063509461097,-12.06698729810778 A 101.39638979675787 101.39638979675787 0 0 1 59.380009291491774,-24.786181063173842 L 59.2496415266434,-25.7776467690298 A 102.39638979675787 102.39638979675787 0 0 0 21.40063509461097,-12.933012701892217 Z M 81.32068413831038,-26.279399230440674 L 81.23550677841877,-25.28303342544639 A 101.39638979675787 101.39638979675787 0 0 1 119.25416667951035,-14.280175635388373 L 117.87378212794877,-11.616618147777091 L 125.69919824253027,-11.503204596346553 L 121.09467941492579,-17.83158561887008 L 119.71429486336422,-15.168028131258799 A 102.39638979675787 102.39638979675787 0 0 0 81.32068413831038,-26.279399230440674"/><text text-anchor="middle" pointer-events="none" font-size="8px" fill="#000000" x="70.28296486045552" y="-23.125207197370045" font-family="sans-serif">road</text></g><g class="relationship" transform="translate(221.55252766634527 232.77079863950846) rotate(535.8600566810719)"><path class="outline" fill="#A5ABB6" stroke="none" d="M 21.40063509461097,12.933012701892217 L 21.90063509461097,12.06698729810778 A 109.24703070140352 109.24703070140352 0 0 0 64.55961853738023,26.046171042550597 L 64.45010039458847,27.040155839415945 A 110.24703070140352 110.24703070140352 0 0 1 21.40063509461097,12.933012701892217 Z M 83.84447366963064,27.46001357019074 L 83.77807439177485,26.462220437371997 A 109.24703070140352 109.24703070140352 0 0 0 127.00206315097266,14.342268198353345 L 125.61590430395665,11.68171117944936 L 133.44105600291797,11.55132372513333 L 128.850274946994,17.88967755689199 L 127.464116099978,15.229120537988006 A 110.24703070140352 110.24703070140352 0 0 1 83.84447366963064,27.46001357019074"/><text text-anchor="middle" pointer-events="none" font-size="8px" fill="#000000" x="74.14885607277124" y="30.1776064388432" transform="rotate(180 74.14885607277124 27.1776064388432)" font-family="sans-serif">trek</text></g><g class="relationship" transform="translate(66.34620303637031 244.00488864276392) rotate(537.2411682139297)"><path class="outline" fill="#A5ABB6" stroke="none" d="M 25 0.5 L 89.59300647111203 0.5 L 89.59300647111203 -0.5 L 25 -0.5 Z M 108.92894397111203 0.5 L 173.52195044222407 0.5 L 173.52195044222407 3.5 L 180.52195044222407 0 L 173.52195044222407 -3.5 L 173.52195044222407 -0.5 L 108.92894397111203 -0.5 Z"/><text text-anchor="middle" pointer-events="none" font-size="8px" fill="#000000" x="99.26097522111203" y="3" transform="rotate(180 99.26097522111203 0)" font-family="sans-serif">trek</text></g><g class="relationship" transform="translate(221.55252766634527 232.77079863950846) rotate(535.8600566810719)"><path class="outline" fill="#A5ABB6" stroke="none" d="M 25 0.5 L 63.300322871892206 0.5 L 63.300322871892206 -0.5 L 25 -0.5 Z M 85.3120416218922 0.5 L 123.61236449378441 0.5 L 123.61236449378441 3.5 L 130.6123644937844 0 L 123.61236449378441 -3.5 L 123.61236449378441 -0.5 L 85.3120416218922 -0.5 Z"/><text text-anchor="middle" pointer-events="none" font-size="8px" fill="#000000" x="74.3061822468922" y="3" transform="rotate(180 74.3061822468922 0)" font-family="sans-serif">road</text></g><g class="relationship" transform="translate(221.55252766634527 232.77079863950846) rotate(535.8600566810719)"><path class="outline" fill="#A5ABB6" stroke="none" d="M 21.40063509461097,-12.933012701892217 L 21.90063509461097,-12.06698729810778 A 109.24703070140352 109.24703070140352 0 0 1 51.26360174870892,-23.7427754930207 L 51.03237762724382,-24.7156760047138 A 110.24703070140352 110.24703070140352 0 0 0 21.40063509461097,-12.933012701892217 Z M 97.35022130854881,-25.71838459790355 L 97.1613176189824,-24.736388978733984 A 109.24703070140352 109.24703070140352 0 0 1 127.00206315097266,-14.342268198353345 L 125.61590430395665,-11.68171117944936 L 133.44105600291797,-11.55132372513333 L 128.850274946994,-17.88967755689199 L 127.464116099978,-15.229120537988006 A 110.24703070140352 110.24703070140352 0 0 0 97.35022130854881,-25.71838459790355"/><text text-anchor="middle" pointer-events="none" font-size="8px" fill="#000000" x="74.1488560727712" y="-24.1776064388432" transform="rotate(180 74.1488560727712 -27.1776064388432)" font-family="sans-serif">twowheeler</text></g><g class="relationship" transform="translate(104.83176595950295 141.94488904411187) rotate(397.88816211233484)"><path class="outline" fill="#A5ABB6" stroke="none" d="M 25 0.5 L 47.21533344464548 0.5 L 47.21533344464548 -0.5 L 25 -0.5 Z M 93.68017719464548 0.5 L 115.89551063929096 0.5 L 115.89551063929096 3.5 L 122.89551063929096 0 L 115.89551063929096 -3.5 L 115.89551063929096 -0.5 L 93.68017719464548 -0.5 Z"/><text text-anchor="middle" pointer-events="none" font-size="8px" fill="#000000" x="70.44775531964548" y="3" font-family="sans-serif">twowheeler</text></g><g class="relationship" transform="translate(104.83176595950295 141.94488904411187) rotate(397.88816211233484)"><path class="outline" fill="#A5ABB6" stroke="none" d="M 21.40063509461097,12.933012701892217 L 21.90063509461097,12.06698729810778 A 101.39638979675787 101.39638979675787 0 0 0 60.70107452042244,24.95107264874426 L 60.583735476138756,25.94416456225811 A 102.39638979675787 102.39638979675787 0 0 1 21.40063509461097,12.933012701892217 Z M 79.9804012704335,26.38511902810228 L 79.90831307189355,25.387720766808798 A 101.39638979675787 101.39638979675787 0 0 0 119.25416667951035,14.280175635388373 L 117.87378212794877,11.616618147777091 L 125.69919824253027,11.503204596346553 L 121.09467941492579,17.83158561887008 L 119.71429486336422,15.168028131258799 A 102.39638979675787 102.39638979675787 0 0 1 79.9804012704335,26.38511902810228"/><text text-anchor="middle" pointer-events="none" font-size="8px" fill="#000000" x="70.2829648604555" y="29.125207197370045" font-family="sans-serif">trek</text></g><g class="relationship" transform="translate(-32.15328700635123 233.61341279401566) rotate(326.2101032454358)"><path class="outline" fill="#A5ABB6" stroke="none" d="M 24.018736134675446,6.953439040707552 L 24.277555179777966,5.987513214418485 A 219.9440642602359 219.9440642602359 0 0 0 67.90827046341839,13.079735224471307 L 67.84782328813827,14.077906622078274 A 220.9440642602359 220.9440642602359 0 0 1 24.018736134675446,6.953439040707552 Z M 89.89907478643066,14.310736519229295 L 89.8597172823132,13.311511325957213 A 219.9440642602359 219.9440642602359 0 0 0 133.6304563198092,7.142124540109864 L 132.91535829756572,4.228598357185905 L 140.54786708367234,5.959150185362392 L 134.58392034946718,11.026826117341809 L 133.86882232722368,8.113299934417851 A 220.9440642602359 220.9440642602359 0 0 1 89.89907478643066,14.310736519229295"/><text text-anchor="middle" pointer-events="none" font-size="8px" fill="#000000" x="78.87582137093129" y="16.96963854444391" font-family="sans-serif">road</text></g><g class="relationship" transform="translate(153.8287472036732 -184.18018367784356) rotate(333.42080859385635)"><path class="outline" fill="#A5ABB6" stroke="none" d="M 24.018736134675446,-6.953439040707552 L 24.277555179777966,-5.987513214418485 A 237.91207414185237 237.91207414185237 0 0 1 73.82671234644923,-13.789978952658743 L 73.7761599786282,-14.788700364318515 A 238.91207414185237 238.91207414185237 0 0 0 24.018736134675446,-6.953439040707552 Z M 93.14636599398425,-14.982843159884084 L 93.115841647349,-13.98330913631986 A 237.91207414185237 237.91207414185237 0 0 1 142.8114335027894,-7.175549030280073 L 142.09321393347116,-4.262790775592891 L 149.72757269194588,-5.985163077652034 L 143.76905959521375,-11.059226703196316 L 143.0508400258955,-8.146468448509133 A 238.91207414185237 238.91207414185237 0 0 0 93.14636599398425,-14.982843159884084"/><text text-anchor="middle" pointer-events="none" font-size="8px" fill="#000000" x="83.46430564578586" y="-11.582196546840464" font-family="sans-serif">trek</text></g><g class="relationship" transform="translate(309.440368577906 -262.0340052217083) rotate(230.08767802247223)"><path class="outline" fill="#A5ABB6" stroke="none" d="M 21.40063509461097,-12.933012701892217 L 21.90063509461097,-12.06698729810778 A 71.60611557185487 71.60611557185487 0 0 1 44.837220931356654,-20.494954190889544 L 44.657536949808026,-21.478678576464503 A 72.60611557185487 72.60611557185487 0 0 0 21.40063509461097,-12.933012701892217 Z M 66.72725553745907,-22.097476790785393 L 66.6029745098094,-21.105229731749006 A 71.60611557185487 71.60611557185487 0 0 1 89.97576666233654,-13.975700800115847 L 88.62370028403619,-11.297657389588348 L 96.44987901661743,-11.267219819169604 L 91.77852183340367,-17.546425347485847 L 90.42645545510332,-14.868381936958349 A 72.60611557185487 72.60611557185487 0 0 0 66.72725553745907,-22.097476790785393"/><text text-anchor="middle" pointer-events="none" font-size="8px" fill="#000000" x="55.682751513097266" y="-19.13206136661462" transform="rotate(180 55.682751513097266 -22.13206136661462)" font-family="sans-serif">road</text></g><g class="relationship" transform="translate(233.23778646444973 -353.1314518464759) rotate(443.6519385917286)"><path class="outline" fill="#A5ABB6" stroke="none" d="M 21.40063509461097,12.933012701892217 L 21.90063509461097,12.06698729810778 A 127.66439395785 127.66439395785 0 0 0 73.63627667884684,28.596389720972923 L 73.54152390542528,29.59189055569327 A 128.66439395785 128.66439395785 0 0 1 21.40063509461097,12.933012701892217 Z M 92.93081908044228,29.969273441782875 L 92.87487518807633,28.970839527641857 A 127.66439395785 127.66439395785 0 0 0 145.21452921358176,14.467103075267444 L 143.816762100231,11.812626272423785 L 151.64126960577542,11.648059277922961 L 147.07821869804943,18.00640547905899 L 145.68045158469866,15.351928676215332 A 128.66439395785 128.66439395785 0 0 1 92.93081908044228,29.969273441782875"/><text text-anchor="middle" pointer-events="none" font-size="8px" fill="#000000" x="83.23878111958068" y="32.64650379005796" font-family="sans-serif">trek</text></g><g class="relationship" transform="translate(252.45029962609087 -180.43495339878078) rotate(524.6234966997968)"><path class="outline" fill="#A5ABB6" stroke="none" d="M 25 0.5 L 84.01400774850603 0.5 L 84.01400774850603 -0.5 L 25 -0.5 Z M 103.34994524850603 0.5 L 162.36395299701206 0.5 L 162.36395299701206 3.5 L 169.36395299701206 0 L 162.36395299701206 -3.5 L 162.36395299701206 -0.5 L 103.34994524850603 -0.5 Z"/><text text-anchor="middle" pointer-events="none" font-size="8px" fill="#000000" x="93.68197649850603" y="3" transform="rotate(180 93.68197649850603 0)" font-family="sans-serif">trek</text></g><g class="relationship" transform="translate(233.23778646444973 -353.1314518464759) rotate(443.6519385917286)"><path class="outline" fill="#A5ABB6" stroke="none" d="M 25 0.5 L 60.1485329397363 0.5 L 60.1485329397363 -0.5 L 25 -0.5 Z M 106.6133766897363 0.5 L 141.7619096294726 0.5 L 141.7619096294726 3.5 L 148.7619096294726 0 L 141.7619096294726 -3.5 L 141.7619096294726 -0.5 L 106.6133766897363 -0.5 Z"/><text text-anchor="middle" pointer-events="none" font-size="8px" fill="#000000" x="83.3809548147363" y="3" font-family="sans-serif">twowheeler</text></g><g class="relationship" transform="translate(233.23778646444973 -353.1314518464759) rotate(443.6519385917286)"><path class="outline" fill="#A5ABB6" stroke="none" d="M 21.40063509461097,-12.933012701892217 L 21.90063509461097,-12.06698729810778 A 127.66439395785 127.66439395785 0 0 1 72.31028456214332,-28.463193294411525 L 72.2051452425941,-29.45765079651241 A 128.66439395785 128.66439395785 0 0 0 21.40063509461097,-12.933012701892217 Z M 94.27140917851001,-29.887136772881504 L 94.20504600807631,-28.889341237909548 A 127.66439395785 127.66439395785 0 0 1 145.21452921358176,-14.467103075267444 L 143.816762100231,-11.812626272423785 L 151.64126960577542,-11.648059277922961 L 147.07821869804943,-18.00640547905899 L 145.68045158469866,-15.351928676215332 A 128.66439395785 128.66439395785 0 0 0 94.27140917851001,-29.887136772881504"/><text text-anchor="middle" pointer-events="none" font-size="8px" fill="#000000" x="83.23878111958071" y="-26.646503790057963" font-family="sans-serif">road</text></g><g class="relationship" transform="translate(309.440368577906 -262.0340052217083) rotate(230.08767802247223)"><path class="outline" fill="#A5ABB6" stroke="none" d="M 25 0.5 L 32.65103184383995 0.5 L 32.65103184383995 -0.5 L 25 -0.5 Z M 79.11587559383995 0.5 L 86.7669074376799 0.5 L 86.7669074376799 3.5 L 93.7669074376799 0 L 86.7669074376799 -3.5 L 86.7669074376799 -0.5 L 79.11587559383995 -0.5 Z"/><text text-anchor="middle" pointer-events="none" font-size="8px" fill="#000000" x="55.88345371883995" y="3" transform="rotate(180 55.88345371883995 0)" font-family="sans-serif">twowheeler</text></g><g class="relationship" transform="translate(309.440368577906 -262.0340052217083) rotate(230.08767802247223)"><path class="outline" fill="#A5ABB6" stroke="none" d="M 21.40063509461097,12.933012701892217 L 21.90063509461097,12.06698729810778 A 71.60611557185487 71.60611557185487 0 0 0 46.14635002739988,20.721546138588437 L 45.98494841022179,21.70843494588756 A 72.60611557185487 72.60611557185487 0 0 1 21.40063509461097,12.933012701892217 Z M 65.38905566984373,22.252493850628795 L 65.2832055946982,21.258111750230924 A 71.60611557185487 71.60611557185487 0 0 0 89.97576666233654,13.975700800115847 L 88.62370028403619,11.297657389588348 L 96.44987901661743,11.267219819169604 L 91.77852183340367,17.546425347485847 L 90.42645545510332,14.868381936958349 A 72.60611557185487 72.60611557185487 0 0 1 65.38905566984373,22.252493850628795"/><text text-anchor="middle" pointer-events="none" font-size="8px" fill="#000000" x="55.68275151309727" y="25.13206136661462" transform="rotate(180 55.68275151309727 22.13206136661462)" font-family="sans-serif">trek</text></g><g class="relationship" transform="translate(153.8287472036732 -184.18018367784356) rotate(333.42080859385635)"><path class="outline" fill="#A5ABB6" stroke="none" d="M 24.018736134675446,6.953439040707552 L 24.277555179777966,5.987513214418485 A 237.91207414185237 237.91207414185237 0 0 0 72.49353095021556,13.718746379335101 L 72.4373749096888,14.717168383856404 A 238.91207414185237 238.91207414185237 0 0 1 24.018736134675446,6.953439040707552 Z M 94.48631586382498,14.938159478773144 L 94.45018296904642,13.938812485024272 A 237.91207414185237 237.91207414185237 0 0 0 142.8114335027894,7.175549030280073 L 142.09321393347116,4.262790775592891 L 149.72757269194588,5.985163077652034 L 143.76905959521375,11.059226703196316 L 143.0508400258955,8.146468448509133 A 238.91207414185237 238.91207414185237 0 0 1 94.48631586382498,14.938159478773144"/><text text-anchor="middle" pointer-events="none" font-size="8px" fill="#000000" x="83.46430564578584" y="17.582196546840464" font-family="sans-serif">road</text></g><g class="relationship" transform="translate(153.8287472036732 -184.18018367784356) rotate(263.94178126004965)"><path class="outline" fill="#A5ABB6" stroke="none" d="M 21.40063509461097,12.933012701892217 L 21.90063509461097,12.06698729810778 A 88.8738177963995 88.8738177963995 0 0 0 34.19719278386913,17.958637871221498 L 33.835552516737,18.890955583800533 A 89.8738177963995 89.8738177963995 0 0 1 21.40063509461097,12.933012701892217 Z M 94.6625269496331,20.393604907613366 L 94.3473630492746,19.444567650225224 A 88.8738177963995 88.8738177963995 0 0 0 106.91983463527201,14.167273296087501 L 105.54995006244661,11.498300411786323 L 113.37575212744566,11.415704773545077 L 108.74634739903922,17.725903808489072 L 107.37646282621382,15.056930924187892 A 89.8738177963995 89.8738177963995 0 0 1 94.6625269496331,20.393604907613366"/><text text-anchor="middle" pointer-events="none" font-size="8px" fill="#000000" x="64.13035634409596" y="27.44656249528336" transform="rotate(180 64.13035634409596 24.44656249528336)" font-family="sans-serif">PublicTransport</text></g><g class="relationship" transform="translate(139.51585086961913 -319.0399774994565) rotate(194.6248381260782)"><path class="outline" fill="#A5ABB6" stroke="none" d="M 24.018736134675446,-6.953439040707552 L 24.277555179777966,-5.987513214418485 A 262.9070564770261 262.9070564770261 0 0 1 80.21660980759545,-14.666971638297184 L 80.17056198049448,-15.665910874496944 A 263.9070564770261 263.9070564770261 0 0 0 24.018736134675446,-6.953439040707552 Z M 99.53800513974005,-15.847206789945346 L 99.51066560305551,-14.847580584939806 A 262.9070564770261 262.9070564770261 0 0 1 155.60239783840655,-7.216826623274521 L 154.88032338899677,-4.305021600696673 L 162.51695529932314,-6.017287078414712 L 156.5651637709529,-11.099233320044986 L 155.84308932154312,-8.187428297467138 A 263.9070564770261 263.9070564770261 0 0 0 99.53800513974005,-15.847206789945346"/><text text-anchor="middle" pointer-events="none" font-size="8px" fill="#000000" x="89.85730004805909" y="-12.434314072270354" transform="rotate(180 89.85730004805909 -15.434314072270354)" font-family="sans-serif">trek</text></g><g class="relationship" transform="translate(-41.214373285713705 -366.2003479141571) rotate(457.253354175882)"><path class="outline" fill="#A5ABB6" stroke="none" d="M 24.018736134675446,-6.953439040707552 L 24.277555179777966,-5.987513214418485 A 169.5633996790304 169.5633996790304 0 0 1 56.42896863130954,-11.358697809971972 L 56.35976251866998,-12.356300192674269 A 170.5633996790304 170.5633996790304 0 0 0 24.018736134675446,-6.953439040707552 Z M 75.74061215876286,-12.59687293541225 L 75.69618985125739,-11.597860093354683 A 169.5633996790304 169.5633996790304 0 0 1 107.97102054768898,-7.026392669483887 L 107.26673126850493,-4.110234818607772 L 114.8927704129306,-5.869077326533782 L 108.9100729199344,-10.914603137318709 L 108.20578364075034,-7.9984452864425934 A 170.5633996790304 170.5633996790304 0 0 0 75.74061215876286,-12.59687293541225"/><text text-anchor="middle" pointer-events="none" font-size="8px" fill="#000000" x="66.0529733023325" y="-9.252145751125028" transform="rotate(180 66.0529733023325 -12.252145751125028)" font-family="sans-serif">trek</text></g><g class="relationship" transform="translate(-58.788606867857695 -228.12015438166657) rotate(398.7040743422816)"><path class="outline" fill="#A5ABB6" stroke="none" d="M 24.018736134675446,6.953439040707552 L 24.277555179777966,5.987513214418485 A 207.88913010024322 207.88913010024322 0 0 0 66.16851232441432,12.729450012252187 L 66.11119952027994,13.727806282569674 A 208.88913010024322 208.88913010024322 0 0 1 24.018736134675446,6.953439040707552 Z M 85.48541689495019,13.9399702403324 L 85.44998089322104,12.940598292666522 A 207.88913010024322 207.88913010024322 0 0 0 127.47853407915775,7.117650639061305 L 126.76572173438788,4.203564408157408 L 134.39687067539515,5.940102873082251 L 128.42895053885093,11.003098946933166 L 127.71613819408105,8.08901271602927 A 208.88913010024322 208.88913010024322 0 0 1 85.48541689495019,13.9399702403324"/><text text-anchor="middle" pointer-events="none" font-size="8px" fill="#000000" x="75.80132208358383" y="16.55866956372887" font-family="sans-serif">trek</text></g><g class="relationship" transform="translate(-58.788606867857695 -228.12015438166657) rotate(398.7040743422816)"><path class="outline" fill="#A5ABB6" stroke="none" d="M 24.018736134675446,-6.953439040707552 L 24.277555179777966,-5.987513214418485 A 207.88913010024322 207.88913010024322 0 0 1 52.693618100631134,-11.514916094770655 L 52.571487601520175,-12.507430145646993 A 208.88913010024322 208.88913010024322 0 0 0 24.018736134675446,-6.953439040707552 Z M 99.04860689734069,-13.016393650314967 L 98.94824080568353,-12.021443074836242 A 207.88913010024322 207.88913010024322 0 0 1 127.47853407915775,-7.117650639061305 L 126.76572173438788,-4.203564408157408 L 134.39687067539515,-5.940102873082251 L 128.42895053885093,-11.003098946933166 L 127.71613819408105,-8.08901271602927 A 208.88913010024322 208.88913010024322 0 0 0 99.04860689734069,-13.016393650314967"/><text text-anchor="middle" pointer-events="none" font-size="8px" fill="#000000" x="75.80132208358378" y="-10.55866956372887" font-family="sans-serif">twowheeler</text></g><g class="relationship" transform="translate(-41.214373285713705 -366.2003479141571) rotate(457.253354175882)"><path class="outline" fill="#A5ABB6" stroke="none" d="M 24.018736134675446,6.953439040707552 L 24.277555179777966,5.987513214418485 A 169.5633996790304 169.5633996790304 0 0 0 42.98843185993759,9.885917470293947 L 42.83996019354757,10.874834132242455 A 170.5633996790304 170.5633996790304 0 0 1 24.018736134675446,6.953439040707552 Z M 89.29302179820914,11.451451806200936 L 89.16914276279516,10.45915447949642 A 169.5633996790304 169.5633996790304 0 0 0 107.97102054768898,7.026392669483887 L 107.26673126850493,4.110234818607772 L 114.8927704129306,5.869077326533782 L 108.9100729199344,10.914603137318709 L 108.20578364075034,7.9984452864425934 A 170.5633996790304 170.5633996790304 0 0 1 89.29302179820914,11.451451806200936"/><text text-anchor="middle" pointer-events="none" font-size="8px" fill="#000000" x="66.05297330233257" y="15.252145751125028" transform="rotate(180 66.05297330233257 12.252145751125028)" font-family="sans-serif">twowheeler</text></g><g class="relationship" transform="translate(139.51585086961913 -319.0399774994565) rotate(194.6248381260782)"><path class="outline" fill="#A5ABB6" stroke="none" d="M 24.018736134675446,6.953439040707552 L 24.277555179777966,5.987513214418485 A 262.9070564770261 262.9070564770261 0 0 0 66.71429130067759,13.695670226113009 L 66.61688570978035,14.690914995434582 A 263.9070564770261 263.9070564770261 0 0 1 24.018736134675446,6.953439040707552 Z M 113.10755831770352,15.126107652563576 L 113.02880085624233,14.129213845649247 A 262.9070564770261 262.9070564770261 0 0 0 155.60239783840655,7.216826623274521 L 154.88032338899677,4.305021600696673 L 162.51695529932314,6.017287078414712 L 156.5651637709529,11.099233320044986 L 155.84308932154312,8.187428297467138 A 263.9070564770261 263.9070564770261 0 0 1 113.10755831770352,15.126107652563576"/><text text-anchor="middle" pointer-events="none" font-size="8px" fill="#000000" x="89.85730004805914" y="18.434314072270354" transform="rotate(180 89.85730004805914 15.434314072270354)" font-family="sans-serif">twowheeler</text></g><g class="relationship" transform="translate(139.51585086961913 -319.0399774994565) rotate(410.8270819443739)"><path class="outline" fill="#A5ABB6" stroke="none" d="M 25 0.5 L 76.22658145004999 0.5 L 76.22658145004999 -0.5 L 25 -0.5 Z M 95.56251895004999 0.5 L 146.78910040009998 0.5 L 146.78910040009998 3.5 L 153.78910040009998 0 L 146.78910040009998 -3.5 L 146.78910040009998 -0.5 L 95.56251895004999 -0.5 Z"/><text text-anchor="middle" pointer-events="none" font-size="8px" fill="#000000" x="85.89455020004999" y="3" font-family="sans-serif">trek</text></g><g class="relationship" transform="translate(-32.15328700635123 233.61341279401566) rotate(264.98190816464773)"><path class="outline" fill="#A5ABB6" stroke="none" d="M 21.40063509461097,12.933012701892217 L 21.90063509461097,12.06698729810778 A 85.73591416518738 85.73591416518738 0 0 0 51.71309570094757,22.553574253667065 L 51.560819999412466,23.54191230854606 A 86.73591416518738 86.73591416518738 0 0 1 21.40063509461097,12.933012701892217 Z M 73.63307568857529,24.099253877110755 L 73.5308748459752,23.104490092199057 A 85.73591416518738 85.73591416518738 0 0 0 103.8345941781855,14.135883287599937 L 102.46762903709961,11.46541398370295 L 110.29351674412611,11.391376175715706 L 105.6572143663,17.69650902612925 L 104.29024922521411,15.026039722232264 A 86.73591416518738 86.73591416518738 0 0 1 73.63307568857529,24.099253877110755"/><text text-anchor="middle" pointer-events="none" font-size="8px" fill="#000000" x="62.591762351198994" y="27.025942838626122" transform="rotate(180 62.591762351198994 24.025942838626122)" font-family="sans-serif">road</text></g><g class="relationship" transform="translate(-43.747250120733405 101.57402251477687) rotate(412.2973885641082)"><path class="outline" fill="#A5ABB6" stroke="none" d="M 25 0.5 L 76.84191967069513 0.5 L 76.84191967069513 -0.5 L 25 -0.5 Z M 96.17785717069513 0.5 L 148.01977684139027 0.5 L 148.01977684139027 3.5 L 155.01977684139027 0 L 148.01977684139027 -3.5 L 148.01977684139027 -0.5 L 96.17785717069513 -0.5 Z"/><text text-anchor="middle" pointer-events="none" font-size="8px" fill="#000000" x="86.50988842069513" y="3" font-family="sans-serif">trek</text></g><g class="relationship" transform="translate(-43.747250120733405 101.57402251477687) rotate(533.0818753275214)"><path class="outline" fill="#A5ABB6" stroke="none" d="M 24.018736134675446,-6.953439040707552 L 24.277555179777966,-5.987513214418485 A 228.07698834108444 228.07698834108444 0 0 1 71.31572411012553,-13.443541543266008 L 71.26314318344293,-14.442158209534512 A 229.07698834108444 229.07698834108444 0 0 0 24.018736134675446,-6.953439040707552 Z M 90.63457028645944,-14.641862445359635 L 90.60258825793952,-13.642374001278512 A 228.07698834108444 228.07698834108444 0 0 1 137.78447510643736,-7.1576806256408805 L 137.06792427870246,-4.244511404453678 L 144.70129509382997,-5.971256897790687 L 138.73987621008385,-11.041906253890485 L 138.02332538234896,-8.128737032703281 A 229.07698834108444 229.07698834108444 0 0 0 90.63457028645944,-14.641862445359635"/><text text-anchor="middle" pointer-events="none" font-size="8px" fill="#000000" x="80.95189906514622" y="-11.246902527890654" transform="rotate(180 80.95189906514622 -14.246902527890654)" font-family="sans-serif">trek</text></g><g class="relationship" transform="translate(-211.49467751073055 121.92753529474687) rotate(510.49266089141344)"><path class="outline" fill="#A5ABB6" stroke="none" d="M 24.018736134675446,-6.953439040707552 L 24.277555179777966,-5.987513214418485 A 155.8215775041113 155.8215775041113 0 0 1 52.950031661197094,-10.860354651854607 L 52.875220998891635,-11.857552407971923 A 156.8215775041113 156.8215775041113 0 0 0 24.018736134675446,-6.953439040707552 Z M 72.25899479896542,-12.110213886932712 L 72.21020146424077,-11.111404991054002 A 155.8215775041113 155.8215775041113 0 0 1 100.99994688713218,-6.987565792318153 L 100.29928398034552,-4.07053451188024 L 107.9231303592851,-5.838857556555575 L 101.93416409618108,-10.876940832902038 L 101.23350118939442,-7.959909552464125 A 156.8215775041113 156.8215775041113 0 0 0 72.25899479896542,-12.110213886932712"/><text text-anchor="middle" pointer-events="none" font-size="8px" fill="#000000" x="62.56971687688088" y="-8.783726642844726" transform="rotate(180 62.56971687688088 -11.783726642844726)" font-family="sans-serif">trek</text></g><g class="relationship" transform="translate(-326.5749704906941 187.0562931183135) rotate(379.6070766604124)"><path class="outline" fill="#A5ABB6" stroke="none" d="M 24.018736134675446,6.953439040707552 L 24.277555179777966,5.987513214418485 A 287.12886345080045 287.12886345080045 0 0 0 86.41864817374417,15.513021318525716 L 86.37625144246665,16.512122172882755 A 288.12886345080045 288.12886345080045 0 0 1 24.018736134675446,6.953439040707552 Z M 105.74140518412254,16.682477782902936 L 105.71659187087441,15.682785680560585 A 287.12886345080045 287.12886345080045 0 0 0 168.01564688565838,7.251979823997863 L 167.29028957453525,4.340990856103927 L 174.9288473625981,6.04464425935952 L 168.98278996715592,11.133298447856445 L 168.2574326560328,8.222309479962508 A 288.12886345080045 288.12886345080045 0 0 1 105.74140518412254,16.682477782902936"/><text text-anchor="middle" pointer-events="none" font-size="8px" fill="#000000" x="96.0617949914799" y="19.260063187431456" font-family="sans-serif">trek</text></g><g class="relationship" transform="translate(-326.5749704906941 187.0562931183135) rotate(379.6070766604124)"><path class="outline" fill="#A5ABB6" stroke="none" d="M 24.018736134675446,-6.953439040707552 L 24.277555179777966,-5.987513214418485 A 287.12886345080045 287.12886345080045 0 0 1 72.90849856697835,-14.62020065905108 L 72.81904927036695,-15.616192036190341 A 288.12886345080045 288.12886345080045 0 0 0 24.018736134675446,-6.953439040707552 Z M 119.31227100951163,-16.02519375426806 L 119.24035770890764,-15.027782867423412 A 287.12886345080045 287.12886345080045 0 0 1 168.01564688565838,-7.251979823997863 L 167.29028957453525,-4.340990856103927 L 174.9288473625981,-6.04464425935952 L 168.98278996715592,-11.133298447856445 L 168.2574326560328,-8.222309479962508 A 288.12886345080045 288.12886345080045 0 0 0 119.31227100951163,-16.02519375426806"/><text text-anchor="middle" pointer-events="none" font-size="8px" fill="#000000" x="96.06179499147977" y="-13.260063187431456" font-family="sans-serif">twowheeler</text></g><g class="relationship" transform="translate(-211.49467751073055 121.92753529474687) rotate(510.49266089141344)"><path class="outline" fill="#A5ABB6" stroke="none" d="M 24.018736134675446,6.953439040707552 L 24.277555179777966,5.987513214418485 A 155.8215775041113 155.8215775041113 0 0 0 39.527626809730165,9.26548436300439 L 39.36667656992549,10.25244688524461 A 156.8215775041113 156.8215775041113 0 0 1 24.018736134675446,6.953439040707552 Z M 85.80478671649678,10.857753246678243 L 85.66961628919904,9.86693088339402 A 155.8215775041113 155.8215775041113 0 0 0 100.99994688713218,6.987565792318153 L 100.29928398034552,4.07053451188024 L 107.9231303592851,5.838857556555575 L 101.93416409618108,10.876940832902038 L 101.23350118939442,7.959909552464125 A 156.8215775041113 156.8215775041113 0 0 1 85.80478671649678,10.857753246678243"/><text text-anchor="middle" pointer-events="none" font-size="8px" fill="#000000" x="62.56971687688092" y="14.783726642844755" transform="rotate(180 62.56971687688092 11.783726642844755)" font-family="sans-serif">twowheeler</text></g><g class="relationship" transform="translate(-43.747250120733405 101.57402251477687) rotate(533.0818753275214)"><path class="outline" fill="#A5ABB6" stroke="none" d="M 24.018736134675446,6.953439040707552 L 24.277555179777966,5.987513214418485 A 228.07698834108444 228.07698834108444 0 0 0 57.82870741907217,12.331363499514197 L 57.716992877950204,13.325103838487053 A 229.07698834108444 229.07698834108444 0 0 1 24.018736134675446,6.953439040707552 Z M 104.20087099285278,13.804316201508044 L 104.10966738644922,12.808483935421549 A 228.07698834108444 228.07698834108444 0 0 0 137.78447510643736,7.1576806256408805 L 137.06792427870246,4.244511404453678 L 144.70129509382997,5.971256897790687 L 138.73987621008385,11.041906253890485 L 138.02332538234896,8.128737032703281 A 229.07698834108444 229.07698834108444 0 0 1 104.20087099285278,13.804316201508044"/><text text-anchor="middle" pointer-events="none" font-size="8px" fill="#000000" x="80.95189906514625" y="17.246902527890654" transform="rotate(180 80.95189906514625 14.246902527890654)" font-family="sans-serif">twowheeler</text></g><g class="relationship" transform="translate(-32.15328700635123 233.61341279401566) rotate(264.98190816464773)"><path class="outline" fill="#A5ABB6" stroke="none" d="M 25 0.5 L 31.910432554967173 0.5 L 31.910432554967173 -0.5 L 25 -0.5 Z M 93.63699505496717 0.5 L 100.54742760993435 0.5 L 100.54742760993435 3.5 L 107.54742760993435 0 L 100.54742760993435 -3.5 L 100.54742760993435 -0.5 L 93.63699505496717 -0.5 Z"/><text text-anchor="middle" pointer-events="none" font-size="8px" fill="#000000" x="62.77371380496717" y="3" transform="rotate(180 62.77371380496717 0)" font-family="sans-serif">PublicTransport</text></g><g class="relationship" transform="translate(-32.15328700635123 233.61341279401566) rotate(264.98190816464773)"><path class="outline" fill="#A5ABB6" stroke="none" d="M 21.40063509461097,-12.933012701892217 L 21.90063509461097,-12.06698729810778 A 85.73591416518738 85.73591416518738 0 0 1 53.029235648562626,-22.745915618019666 L 52.892311039512286,-23.73649708939716 A 86.73591416518738 86.73591416518738 0 0 0 21.40063509461097,-12.933012701892217 Z M 72.29346091680337,-24.22639116532875 L 72.20670482721782,-23.230161582893146 A 85.73591416518738 85.73591416518738 0 0 1 103.8345941781855,-14.135883287599937 L 102.46762903709961,-11.46541398370295 L 110.29351674412611,-11.391376175715706 L 105.6572143663,-17.69650902612925 L 104.29024922521411,-15.026039722232264 A 86.73591416518738 86.73591416518738 0 0 0 72.29346091680337,-24.22639116532875"/><text text-anchor="middle" pointer-events="none" font-size="8px" fill="#000000" x="62.591762351198994" y="-21.025942838626122" transform="rotate(180 62.591762351198994 -24.025942838626122)" font-family="sans-serif">trek</text></g><g class="relationship" transform="translate(153.8287472036732 -184.18018367784356) rotate(263.94178126004965)"><path class="outline" fill="#A5ABB6" stroke="none" d="M 25 0.5 L 54.64062766497774 0.5 L 54.64062766497774 -0.5 L 25 -0.5 Z M 73.97656516497774 0.5 L 103.61719282995548 0.5 L 103.61719282995548 3.5 L 110.61719282995548 0 L 103.61719282995548 -3.5 L 103.61719282995548 -0.5 L 73.97656516497774 -0.5 Z"/><text text-anchor="middle" pointer-events="none" font-size="8px" fill="#000000" x="64.30859641497774" y="3" transform="rotate(180 64.30859641497774 0)" font-family="sans-serif">trek</text></g><g class="relationship" transform="translate(153.8287472036732 -184.18018367784356) rotate(263.94178126004965)"><path class="outline" fill="#A5ABB6" stroke="none" d="M 21.40063509461097,-12.933012701892217 L 21.90063509461097,-12.06698729810778 A 88.8738177963995 88.8738177963995 0 0 1 53.24600715496884,-23.004310149101315 L 53.09870239005108,-23.993401300731193 A 89.8738177963995 89.8738177963995 0 0 0 21.40063509461097,-12.933012701892217 Z M 75.17092974076668,-24.538666256169435 L 75.07264321011137,-23.543508098944287 A 88.8738177963995 88.8738177963995 0 0 1 106.91983463527201,-14.167273296087501 L 105.54995006244661,-11.498300411786323 L 113.37575212744566,-11.415704773545077 L 108.74634739903922,-17.725903808489072 L 107.37646282621382,-15.056930924187892 A 89.8738177963995 89.8738177963995 0 0 0 75.17092974076668,-24.538666256169435"/><text text-anchor="middle" pointer-events="none" font-size="8px" fill="#000000" x="64.13035634409597" y="-21.44656249528336" transform="rotate(180 64.13035634409597 -24.44656249528336)" font-family="sans-serif">road</text></g><g class="relationship" transform="translate(139.51585086961913 -319.0399774994565) rotate(378.5454804752841)"><path class="outline" fill="#A5ABB6" stroke="none" d="M 25 0.5 L 76.44790957762297 0.5 L 76.44790957762297 -0.5 L 25 -0.5 Z M 95.78384707762297 0.5 L 147.23175665524593 0.5 L 147.23175665524593 3.5 L 154.23175665524593 0 L 147.23175665524593 -3.5 L 147.23175665524593 -0.5 L 95.78384707762297 -0.5 Z"/><text text-anchor="middle" pointer-events="none" font-size="8px" fill="#000000" x="86.11587832762297" y="3" font-family="sans-serif">trek</text></g><g class="relationship" transform="translate(-43.747250120733405 101.57402251477687) rotate(375.20102035337527)"><path class="outline" fill="#A5ABB6" stroke="none" d="M 25 0.5 L 63.81503405532793 0.5 L 63.81503405532793 -0.5 L 25 -0.5 Z M 83.15097155532793 0.5 L 121.96600561065586 0.5 L 121.96600561065586 3.5 L 128.96600561065586 0 L 121.96600561065586 -3.5 L 121.96600561065586 -0.5 L 83.15097155532793 -0.5 Z"/><text text-anchor="middle" pointer-events="none" font-size="8px" fill="#000000" x="73.48300280532793" y="3" font-family="sans-serif">trek</text></g><g class="relationship" transform="translate(-211.49467751073055 121.92753529474687) rotate(465.0157274104266)"><path class="outline" fill="#A5ABB6" stroke="none" d="M 24.018736134675446,-6.953439040707552 L 24.277555179777966,-5.987513214418485 A 248.03481103127922 248.03481103127922 0 0 1 76.41318484453909,-14.145704551543389 L 76.36456060817326,-15.14452169378609 A 249.03481103127922 249.03481103127922 0 0 0 24.018736134675446,-6.953439040707552 Z M 95.73359255009925,-15.33325098581551 L 95.70444038299073,-14.33367600055783 A 248.03481103127922 248.03481103127922 0 0 1 147.9891407522792,-7.192942583885132 L 147.26929680317687,-4.280585344647339 L 154.90461496868443,-5.99869957585268 L 148.94893268441564,-11.076085569535522 L 148.2290887353133,-8.16372833029773 A 249.03481103127922 249.03481103127922 0 0 0 95.73359255009925,-15.33325098581551"/><text text-anchor="middle" pointer-events="none" font-size="8px" fill="#000000" x="86.05211266479176" y="-11.927296975969085" transform="rotate(180 86.05211266479176 -14.927296975969085)" font-family="sans-serif">trek</text></g><g class="relationship" transform="translate(-257.9158928919526 294.9838432346245) rotate(237.5371555787833)"><path class="outline" fill="#A5ABB6" stroke="none" d="M 21.40063509461097,12.933012701892217 L 21.90063509461097,12.06698729810778 A 80.99518280956435 80.99518280956435 0 0 0 49.40091570337598,21.86864255498908 L 49.24044553286502,22.855683245323675 A 81.99518280956435 81.99518280956435 0 0 1 21.40063509461097,12.933012701892217 Z M 71.31242478573071,23.432285379635033 L 71.20370866386973,22.438212542843132 A 80.99518280956435 80.99518280956435 0 0 0 99.17824189625212,14.085765610003612 L 97.81593808554268,11.41291538462125 L 105.64194305726254,11.352531755911984 L 100.99464697719804,17.649565910513427 L 99.63234316648861,14.976715685131065 A 81.99518280956435 81.99518280956435 0 0 1 71.31242478573071,23.432285379635033"/><text text-anchor="middle" pointer-events="none" font-size="8px" fill="#000000" x="60.269995506706515" y="26.390490299769382" transform="rotate(180 60.269995506706515 23.390490299769382)" font-family="sans-serif">road</text></g><g class="relationship" transform="translate(-257.9158928919526 294.9838432346245) rotate(237.5371555787833)"><path class="outline" fill="#A5ABB6" stroke="none" d="M 25 0.5 L 50.789878717724456 0.5 L 50.789878717724456 -0.5 L 25 -0.5 Z M 70.12581621772446 0.5 L 95.91569493544891 0.5 L 95.91569493544891 3.5 L 102.91569493544891 0 L 95.91569493544891 -3.5 L 95.91569493544891 -0.5 L 70.12581621772446 -0.5 Z"/><text text-anchor="middle" pointer-events="none" font-size="8px" fill="#000000" x="60.457847467724456" y="3" transform="rotate(180 60.457847467724456 0)" font-family="sans-serif">trek</text></g><g class="relationship" transform="translate(-257.9158928919526 294.9838432346245) rotate(237.5371555787833)"><path class="outline" fill="#A5ABB6" stroke="none" d="M 21.40063509461097,-12.933012701892217 L 21.90063509461097,-12.06698729810778 A 80.99518280956435 80.99518280956435 0 0 1 37.5977871378101,-19.02795109157175 L 37.2915906641273,-19.979919431121033 A 81.99518280956435 81.99518280956435 0 0 0 21.40063509461097,-12.933012701892217 Z M 83.39513062874613,-21.184315250741818 L 83.1390557788599,-20.217658294393942 A 80.99518280956435 80.99518280956435 0 0 1 99.17824189625212,-14.085765610003612 L 97.81593808554268,-11.41291538462125 L 105.64194305726254,-11.352531755911984 L 100.99464697719804,-17.649565910513427 L 99.63234316648861,-14.976715685131065 A 81.99518280956435 81.99518280956435 0 0 0 83.39513062874613,-21.184315250741818"/><text text-anchor="middle" pointer-events="none" font-size="8px" fill="#000000" x="60.26999550670652" y="-20.390490299769382" transform="rotate(180 60.26999550670652 -23.390490299769382)" font-family="sans-serif">twowheeler</text></g><g class="relationship" transform="translate(-211.49467751073055 121.92753529474687) rotate(465.0157274104266)"><path class="outline" fill="#A5ABB6" stroke="none" d="M 24.018736134675446,6.953439040707552 L 24.277555179777966,5.987513214418485 A 248.03481103127922 248.03481103127922 0 0 0 62.91670271799876,13.118912051161175 L 62.8136648206213,14.113589482142714 A 249.03481103127922 249.03481103127922 0 0 1 24.018736134675446,6.953439040707552 Z M 109.3020040851364,14.56656572707439 L 109.21836792248185,13.570069368678418 A 248.03481103127922 248.03481103127922 0 0 0 147.9891407522792,7.192942583885132 L 147.26929680317687,4.280585344647339 L 154.90461496868443,5.99869957585268 L 148.94893268441564,11.076085569535522 L 148.2290887353133,8.16372833029773 A 249.03481103127922 249.03481103127922 0 0 1 109.3020040851364,14.56656572707439"/><text text-anchor="middle" pointer-events="none" font-size="8px" fill="#000000" x="86.0521126647918" y="17.927296975969085" transform="rotate(180 86.0521126647918 14.927296975969085)" font-family="sans-serif">twowheeler</text></g><g class="relationship" transform="translate(-41.214373285713705 -366.2003479141571) rotate(508.91204831498123)"><path class="outline" fill="#A5ABB6" stroke="none" d="M 24.018736134675446,-6.953439040707552 L 24.277555179777966,-5.987513214418485 A 240.50827575216402 240.50827575216402 0 0 1 60.99672265130128,-12.823899671749558 L 60.89057680364566,-13.818250243241039 A 241.50827575216402 241.50827575216402 0 0 0 24.018736134675446,-6.953439040707552 Z M 107.3774393775698,-14.280782252421545 L 107.29109963677449,-13.28451650014486 A 240.50827575216402 240.50827575216402 0 0 1 144.139024649364,-7.180103189896666 L 143.42037976672978,-4.267449840686766 L 151.05498994462613,-5.988707355285146 L 145.09721782620963,-11.0636409888432 L 144.37857294357542,-8.1509876396333 A 241.50827575216402 241.50827575216402 0 0 0 107.3774393775698,-14.280782252421545"/><text text-anchor="middle" pointer-events="none" font-size="8px" fill="#000000" x="84.12782742365206" y="-11.670705289196235" transform="rotate(180 84.12782742365206 -14.670705289196235)" font-family="sans-serif">twowheeler</text></g><g class="relationship" transform="translate(-191.36023944113657 -275.6696277831443) rotate(379.7313895511102)"><path class="outline" fill="#A5ABB6" stroke="none" d="M 21.40063509461097,12.933012701892217 L 21.90063509461097,12.06698729810778 A 94.20675845049709 94.20675845049709 0 0 0 43.95513524151381,21.297107088830728 L 43.68924265068118,22.261109749688217 A 95.20675845049709 95.20675845049709 0 0 1 21.40063509461097,12.933012701892217 Z M 89.91920812043405,23.362548603408953 L 89.69952630224202,22.386977027994917 A 94.20675845049709 94.20675845049709 0 0 0 112.16857223709191,14.217640282674731 L 110.79400340698253,11.551076851722502 L 118.61964838099868,11.454740250911538 L 114.00133067723776,17.773058190611035 L 112.62676184712838,15.106494759658807 A 95.20675845049709 95.20675845049709 0 0 1 89.91920812043405,23.362548603408953"/><text text-anchor="middle" pointer-events="none" font-size="8px" fill="#000000" x="66.74824560694653" y="28.16143144766211" font-family="sans-serif">twowheeler</text></g><g class="relationship" transform="translate(-191.36023944113657 -275.6696277831443) rotate(379.7313895511102)"><path class="outline" fill="#A5ABB6" stroke="none" d="M 25 0.5 L 57.25253640280029 0.5 L 57.25253640280029 -0.5 L 25 -0.5 Z M 76.58847390280029 0.5 L 108.84101030560058 0.5 L 108.84101030560058 3.5 L 115.84101030560058 0 L 108.84101030560058 -3.5 L 108.84101030560058 -0.5 L 76.58847390280029 -0.5 Z"/><text text-anchor="middle" pointer-events="none" font-size="8px" fill="#000000" x="66.92050515280029" y="3" font-family="sans-serif">trek</text></g><g class="relationship" transform="translate(-191.36023944113657 -275.6696277831443) rotate(379.7313895511102)"><path class="outline" fill="#A5ABB6" stroke="none" d="M 21.40063509461097,-12.933012701892217 L 21.90063509461097,-12.06698729810778 A 94.20675845049709 94.20675845049709 0 0 1 55.855258044876265,-23.766178518080153 L 55.71568465872805,-24.756390247903184 A 95.20675845049709 95.20675845049709 0 0 0 21.40063509461097,-12.933012701892217 Z M 77.78757803381592,-25.28225784679657 L 77.69532025866518,-24.286522689777286 A 94.20675845049709 94.20675845049709 0 0 1 112.16857223709191,-14.217640282674731 L 110.79400340698253,-11.551076851722502 L 118.61964838099868,-11.454740250911538 L 114.00133067723776,-17.773058190611035 L 112.62676184712838,-15.106494759658807 A 95.20675845049709 95.20675845049709 0 0 0 77.78757803381592,-25.28225784679657"/><text text-anchor="middle" pointer-events="none" font-size="8px" fill="#000000" x="66.74824560694654" y="-22.16143144766211" font-family="sans-serif">road</text></g><g class="relationship" transform="translate(-41.214373285713705 -366.2003479141571) rotate(508.91204831498123)"><path class="outline" fill="#A5ABB6" stroke="none" d="M 24.018736134675446,6.953439040707552 L 24.277555179777966,5.987513214418485 A 240.50827575216402 240.50827575216402 0 0 0 74.4898804030196,13.881290466215404 L 74.43983723087284,14.88003752174123 A 241.50827575216402 241.50827575216402 0 0 1 24.018736134675446,6.953439040707552 Z M 93.80973444905776,15.07276288503499 L 93.7795737559007,14.073217822224763 A 240.50827575216402 240.50827575216402 0 0 0 144.139024649364,7.180103189896666 L 143.42037976672978,4.267449840686766 L 151.05498994462613,5.988707355285146 L 145.09721782620963,11.0636409888432 L 144.37857294357542,8.1509876396333 A 241.50827575216402 241.50827575216402 0 0 1 93.80973444905776,15.07276288503499"/><text text-anchor="middle" pointer-events="none" font-size="8px" fill="#000000" x="84.12782742365214" y="17.670705289196235" transform="rotate(180 84.12782742365214 14.670705289196235)" font-family="sans-serif">trek</text></g><g class="relationship" transform="translate(-191.36023944113657 -275.6696277831443) rotate(417.43879721679536)"><path class="outline" fill="#A5ABB6" stroke="none" d="M 25 0.5 L 67.566661096054 0.5 L 67.566661096054 -0.5 L 25 -0.5 Z M 86.902598596054 0.5 L 129.469259692108 0.5 L 129.469259692108 3.5 L 136.469259692108 0 L 129.469259692108 -3.5 L 129.469259692108 -0.5 L 86.902598596054 -0.5 Z"/><text text-anchor="middle" pointer-events="none" font-size="8px" fill="#000000" x="77.234629846054" y="3" font-family="sans-serif">trek</text></g><g class="relationship" transform="translate(-104.45745093308476 -139.58058643505396) rotate(363.6064670580898)"><path class="outline" fill="#A5ABB6" stroke="none" d="M 25 0.5 L 71.75080424761663 0.5 L 71.75080424761663 -0.5 L 25 -0.5 Z M 91.08674174761663 0.5 L 137.83754599523326 0.5 L 137.83754599523326 3.5 L 144.83754599523326 0 L 137.83754599523326 -3.5 L 137.83754599523326 -0.5 L 91.08674174761663 -0.5 Z"/><text text-anchor="middle" pointer-events="none" font-size="8px" fill="#000000" x="81.41877299761663" y="3" font-family="sans-serif">trek</text></g><g class="relationship" transform="translate(-257.9158928919526 294.9838432346245) rotate(405.9548605614608)"><path class="outline" fill="#A5ABB6" stroke="none" d="M 25 0.5 L 62.05444557824568 0.5 L 62.05444557824568 -0.5 L 25 -0.5 Z M 81.39038307824568 0.5 L 118.44482865649135 0.5 L 118.44482865649135 3.5 L 125.44482865649135 0 L 118.44482865649135 -3.5 L 118.44482865649135 -0.5 L 81.39038307824568 -0.5 Z"/><text text-anchor="middle" pointer-events="none" font-size="8px" fill="#000000" x="71.72241432824568" y="3" font-family="sans-serif">trek</text></g><g class="relationship" transform="translate(-153.3229059042419 403.1224281267416) rotate(275.5063138940826)"><path class="outline" fill="#A5ABB6" stroke="none" d="M 25 0.5 L 61.790586541400245 0.5 L 61.790586541400245 -0.5 L 25 -0.5 Z M 81.12652404140024 0.5 L 117.91711058280049 0.5 L 117.91711058280049 3.5 L 124.91711058280049 0 L 117.91711058280049 -3.5 L 117.91711058280049 -0.5 L 81.12652404140024 -0.5 Z"/><text text-anchor="middle" pointer-events="none" font-size="8px" fill="#000000" x="71.45855529140024" y="3" font-family="sans-serif">trek</text></g></g><g class="layer nodes"><g class="node" aria-label="graph-node359" transform="translate(-32.15328700635123,233.61341279401566)"><circle class="outline" cx="0" cy="0" r="25" fill="#57C7E3" stroke="#23b3d7" stroke-width="2px"/><text class="caption" text-anchor="middle" pointer-events="none" x="0" y="5" font-size="10px" fill="#2A2C34" font-family="sans-serif"> Darjeeling</text></g><g class="node" aria-label="graph-node361" transform="translate(-138.93754316784148,253.8970905180171)"><circle class="outline" cx="0" cy="0" r="25" fill="#F16667" stroke="#eb2728" stroke-width="2px"/><text class="caption" text-anchor="middle" pointer-events="none" x="0" y="5" font-size="10px" fill="#FFFFFF" font-family="sans-serif"> Sandakp…</text></g><g class="node" aria-label="graph-node369" transform="translate(153.8287472036732,-184.18018367784356)"><circle class="outline" cx="0" cy="0" r="25" fill="#57C7E3" stroke="#23b3d7" stroke-width="2px"/><text class="caption" text-anchor="middle" pointer-events="none" x="0" y="5" font-size="10px" fill="#2A2C34" font-family="sans-serif"> Darjeeling</text></g><g class="node" aria-label="graph-node371" transform="translate(65.04375469869461,-128.89726677044519)"><circle class="outline" cx="0" cy="0" r="25" fill="#F16667" stroke="#eb2728" stroke-width="2px"/><text class="caption" text-anchor="middle" pointer-events="none" x="0" y="5" font-size="10px" fill="#FFFFFF" font-family="sans-serif"> Sandakp…</text></g><g class="node" aria-label="graph-node364" transform="translate(104.83176595950295,141.94488904411187)"><circle class="outline" cx="0" cy="0" r="25" fill="#D9C8AE" stroke="#c0a378" stroke-width="2px"/><text class="caption" text-anchor="middle" pointer-events="none" x="0" y="5" font-size="10px" fill="#2A2C34" font-family="sans-serif"> Tumbling</text></g><g class="node" aria-label="graph-node365" transform="translate(221.55252766634527,232.77079863950846)"><circle class="outline" cx="0" cy="0" r="25" fill="#D9C8AE" stroke="#c0a378" stroke-width="2px"/><text class="caption" text-anchor="middle" pointer-events="none" x="0" y="5" font-size="10px" fill="#2A2C34" font-family="sans-serif"> Gairibus</text></g><g class="node" aria-label="graph-node360" transform="translate(66.34620303637031,244.00488864276392)"><circle class="outline" cx="0" cy="0" r="25" fill="#D9C8AE" stroke="#c0a378" stroke-width="2px"/><text class="caption" text-anchor="middle" pointer-events="none" x="0" y="5" font-size="10px" fill="#2A2C34" font-family="sans-serif"> BhikeBh…</text></g><g class="node" aria-label="graph-node374" transform="translate(309.440368577906,-262.0340052217083)"><circle class="outline" cx="0" cy="0" r="25" fill="#D9C8AE" stroke="#c0a378" stroke-width="2px"/><text class="caption" text-anchor="middle" pointer-events="none" x="0" y="5" font-size="10px" fill="#2A2C34" font-family="sans-serif"> Tumbling</text></g><g class="node" aria-label="graph-node375" transform="translate(233.23778646444973,-353.1314518464759)"><circle class="outline" cx="0" cy="0" r="25" fill="#D9C8AE" stroke="#c0a378" stroke-width="2px"/><text class="caption" text-anchor="middle" pointer-events="none" x="0" y="5" font-size="10px" fill="#2A2C34" font-family="sans-serif"> Gairibus</text></g><g class="node" aria-label="graph-node370" transform="translate(252.45029962609087,-180.43495339878078)"><circle class="outline" cx="0" cy="0" r="25" fill="#D9C8AE" stroke="#c0a378" stroke-width="2px"/><text class="caption" text-anchor="middle" pointer-events="none" x="0" y="5" font-size="10px" fill="#2A2C34" font-family="sans-serif"> BhikeBh…</text></g><g class="node" aria-label="graph-node368" transform="translate(139.51585086961913,-319.0399774994565)"><circle class="outline" cx="0" cy="0" r="25" fill="#57C7E3" stroke="#23b3d7" stroke-width="2px"/><text class="caption" text-anchor="middle" pointer-events="none" x="0" y="5" font-size="10px" fill="#2A2C34" font-family="sans-serif"> Rimbik</text></g><g class="node" aria-label="graph-node372" transform="translate(-41.214373285713705,-366.2003479141571)"><circle class="outline" cx="0" cy="0" r="25" fill="#D9C8AE" stroke="#c0a378" stroke-width="2px"/><text class="caption" text-anchor="middle" pointer-events="none" x="0" y="5" font-size="10px" fill="#2A2C34" font-family="sans-serif"> Sirikhola</text></g><g class="node" aria-label="graph-node373" transform="translate(-58.788606867857695,-228.12015438166657)"><circle class="outline" cx="0" cy="0" r="25" fill="#D9C8AE" stroke="#c0a378" stroke-width="2px"/><text class="caption" text-anchor="middle" pointer-events="none" x="0" y="5" font-size="10px" fill="#2A2C34" font-family="sans-serif"> Gurdum</text></g><g class="node" aria-label="graph-node358" transform="translate(-43.747250120733405,101.57402251477687)"><circle class="outline" cx="0" cy="0" r="25" fill="#57C7E3" stroke="#23b3d7" stroke-width="2px"/><text class="caption" text-anchor="middle" pointer-events="none" x="0" y="5" font-size="10px" fill="#2A2C34" font-family="sans-serif"> Rimbik</text></g><g class="node" aria-label="graph-node362" transform="translate(-211.49467751073055,121.92753529474687)"><circle class="outline" cx="0" cy="0" r="25" fill="#D9C8AE" stroke="#c0a378" stroke-width="2px"/><text class="caption" text-anchor="middle" pointer-events="none" x="0" y="5" font-size="10px" fill="#2A2C34" font-family="sans-serif"> Sirikhola</text></g><g class="node" aria-label="graph-node363" transform="translate(-326.5749704906941,187.0562931183135)"><circle class="outline" cx="0" cy="0" r="25" fill="#D9C8AE" stroke="#c0a378" stroke-width="2px"/><text class="caption" text-anchor="middle" pointer-events="none" x="0" y="5" font-size="10px" fill="#2A2C34" font-family="sans-serif"> Gurdum</text></g><g class="node" aria-label="graph-node366" transform="translate(-257.9158928919526,294.9838432346245)"><circle class="outline" cx="0" cy="0" r="25" fill="#D9C8AE" stroke="#c0a378" stroke-width="2px"/><text class="caption" text-anchor="middle" pointer-events="none" x="0" y="5" font-size="10px" fill="#2A2C34" font-family="sans-serif"> Rammam</text></g><g class="node" aria-label="graph-node376" transform="translate(-191.36023944113657,-275.6696277831443)"><circle class="outline" cx="0" cy="0" r="25" fill="#D9C8AE" stroke="#c0a378" stroke-width="2px"/><text class="caption" text-anchor="middle" pointer-events="none" x="0" y="5" font-size="10px" fill="#2A2C34" font-family="sans-serif"> Rammam</text></g><g class="node" aria-label="graph-node377" transform="translate(-104.45745093308476,-139.58058643505396)"><circle class="outline" cx="0" cy="0" r="25" fill="#F16667" stroke="#eb2728" stroke-width="2px"/><text class="caption" text-anchor="middle" pointer-events="none" x="0" y="5" font-size="10px" fill="#FFFFFF" font-family="sans-serif"> Sabargr…</text></g><g class="node" aria-label="graph-node367" transform="translate(-153.3229059042419,403.1224281267416)"><circle class="outline" cx="0" cy="0" r="25" fill="#F16667" stroke="#eb2728" stroke-width="2px"/><text class="caption" text-anchor="middle" pointer-events="none" x="0" y="5" font-size="10px" fill="#FFFFFF" font-family="sans-serif"> Sabargr…</text></g></g></svg>